<?xml version="1.0" encoding="utf-8"?>
<!-- Generator: Adobe Illustrator 28.0.0, SVG Export Plug-In . SVG Version: 6.00 Build 0)  -->
<svg version="1.1" id="Layer_1" xmlns="http://www.w3.org/2000/svg" xmlns:xlink="http://www.w3.org/1999/xlink" x="0px" y="0px"
	 viewBox="0 0 1280 800" style="enable-background:new 0 0 1280 800;" xml:space="preserve">
<style type="text/css">
	.st0{fill:#BCBEC0;}
	.st1{fill:#ED1C24;}
	.st2{fill:#FFFFFF;}
</style>
<g>
	<path class="st0" d="M935.94,213.89c-194.88-0.37-389.76-0.74-584.64-1.12c-21.57,20.08-43.14,40.17-64.71,60.25
		c0.37,46.49,0.74,92.98,1.12,139.47c20.46,20.83,40.91,41.65,61.37,62.48c196.74-0.74,393.48-1.49,590.22-2.23
		c21.2-18.6,42.4-37.19,63.6-55.79c-0.37-43.89-0.74-87.77-1.12-131.66C979.83,261.49,957.89,237.69,935.94,213.89z"/>
	<path class="st1" d="M921.61,226.85c-185.29-0.33-370.58-0.67-555.87-1c-20.51,18.08-41.02,36.16-61.53,54.24
		c0.35,41.85,0.71,83.7,1.06,125.56c19.45,18.75,38.9,37.5,58.35,56.25c187.06-0.67,374.12-1.34,561.18-2.01
		c20.16-16.74,40.31-33.48,60.47-50.22c-0.35-39.51-0.71-79.02-1.06-118.53C963.34,269.71,942.48,248.28,921.61,226.85z"/>
	<g>
		<path class="st2" d="M407.98,288.41c2.8,1.68,4.2,4.62,4.34,7.7c0.28,5.74,0.84,24.78-2.66,20.16c-1.96-2.52-0.7,1.54-1.68,2.52
			c-0.7,0.7-0.56,1.68-1.12,2.38c-3.64-3.5-3.5-8.4-4.34-12.74c-0.7-3.64-1.12-7.28-1.4-10.92c-0.42-5.18-6.72-8.4-11.76-6.02
			c0.98,0.14,1.54,0.28,2.1,0.28c0.28,0.28,0.28,0.56,0,0.7c-2.24,1.54-3.36,3.5-4.2,6.16c-0.98,3.08-2.52,6.02-2.94,9.24
			c-0.56,4.34-2.38,8.4-3.08,12.74c-0.56,2.52-1.12,5.04-1.4,7.7c-0.7,5.6,0,14.84-0.28,18.62c-0.14,0.84-0.42,1.68-0.28,2.52
			c0.56,2.24,0.28,4.48,0.14,6.72c-0.14,1.68,1.68,3.22,1.82,4.76c0.42,4.06,1.12,7.98,3.22,11.62c1.54,2.66,3.64,4.06,6.72,3.64
			l5.74-0.42c0.98,0,1.68-0.56,2.52-1.12c3.78-2.24,4.9-2.66,8.12-5.6c0.42-0.28,1.96-0.98,3.78-2.66c1.68-1.68,3.36-2.8,5.04-4.62
			c0.98-0.98,2.66-1.82,3.5-1.96c0.7,1.12-1.68,3.22-0.56,4.06c0,0.28-0.14,0.56-0.14,0.7c-0.98,1.4-2.66,1.82-3.36,2.94
			c-0.98,1.68-1.12,2.52-2.1,3.64c-0.84,0.84-1.82,1.54-2.8,2.38c-0.42,0.42-0.84,1.12-1.4,1.82c-2.94,3.22-3.92,4.62-6.72,6.02
			c-2.52,1.26-4.9,2.8-7.28,4.48c-2.38,1.54-5.18,2.24-7.84,3.22c-2.52,0.84-3.5-0.42-5.74,0.56c-0.42,0.14-0.98-0.28-1.4-0.42
			c-0.7-0.28-1.4-0.56-1.96,0c-0.14,0.28-0.56,0.42-0.7,0.42c-2.66-0.98-4.48-1.4-7-2.38c-1.96-0.84-5.18-5.32-6.02-7.42
			c-1.96-4.34-3.5-7.84-3.92-12.6c-0.14-3.64,0.28-5.6-0.98-9.24c-0.56-1.4,0-3.08-0.7-4.62c-0.7-1.12-0.7-2.52-0.28-3.78
			c0.42-1.54,0.42-3.08,0.42-4.62c0.28-6.44,0-13.02,1.12-19.32c0.56-3.22,0.14-6.3,0.84-9.52c1.68-8.96,5.32-17.08,10.22-24.64
			c0.14-0.14,0.28-0.28,0.56-0.42c0.14,0.14,0.42,0.14,0.56,0.28c0.98,0.98,1.68,0.84,2.24-0.28c1.26-2.1,2.94-3.64,4.9-5.04
			c0.42-0.28,0.7-0.84,1.4-0.56c2.94,0.98,5.88-0.14,8.68-0.56C396.5,283.65,402.38,285.19,407.98,288.41z M364.3,324.39
			c-0.42,0.56-0.28,4.9-0.28,5.32c-0.56,1.12,2.1,3.78,1.54,1.12c-0.42-2.1,2.1-15.54,0.28-15.54
			C365.71,315.29,364.3,324.11,364.3,324.39z"/>
		<path class="st2" d="M441.3,285.75c0.56,0.14,0.42,0.98,0.42,1.4c0,1.82,0,3.64-0.28,5.46c-0.56,5.6-0.14,11.2,0,16.8
			c0,2.38-0.42,4.76,0.14,7c0.14,0.98,0,1.96,0.98,2.66c1.82-5.32-0.42-10.64,0.42-16.1c0.98-5.18-0.14-10.64,0.7-16.38
			c1.96,1.54,1.54,3.36,1.4,4.9c0,3.64,0.14,7.28,0.14,10.92c-0.14,6.44,0.14,12.74,0.14,19.18c0.14,6.3-0.28,12.6,0.98,18.76
			c1.12,4.76,1.82,9.38,2.38,14.28c0.28,4.34-0.56,8.54-0.98,12.74c-0.14,0.98-0.28,1.82-0.28,2.8c-0.14,1.54-0.28,3.08-1.12,4.48
			c-0.84,1.4-0.84,2.94-0.14,4.48c0.42,0.14,0.7,0,0.84-0.42c0.7-1.26,0.7-1.4,1.82-0.28c0.42,0.42,0.84,0.42,1.26,0.42
			c1.82,0,3.78,0.14,5.74-0.28c2.66-0.42,5.32-0.56,8.12-0.84c1.4,0,2.94-0.14,4.2,0.7c0.7,0.42,1.54,0.28,2.38,0.28
			c0.7,0,1.4-0.14,2.1,0.28c0.7,0.42,1.4,0.98,0.42,1.68c-0.7,0.7-0.98,1.12-0.42,1.96c0.42,0.42,0.14,0.98-0.28,1.12
			c-1.96,0.84-3.5,2.1-5.88,1.82c-3.36-0.28-6.72,0.84-10.22,0.56c-3.78-0.14-7.7,0.28-11.48,0.56c-3.64,0.42-8.4,0.28-12.04,0.98
			c-2.52,0.42-4.34-0.84-5.6-3.64c1.4-1.12,3.92,0.14,4.62-2.24c-0.14-0.7-0.84-0.98-1.26-1.54c-0.98-1.4-1.96-2.66-2.1-4.48
			c-0.42-8.4,0-16.8-0.56-25.06c-0.42-7-0.28-14-0.56-21c-0.14-7.42-0.56-14.7-0.7-22.12c-0.14-5.88,0.28-11.9-0.28-17.78
			c-0.14-1.4,0.7-1.82,1.68-1.82c2.24,0.28,3.78-1.54,5.88-1.68c0.42,0,0.7-0.42,0.98-0.84c0.7-1.82,2.1-2.1,3.78-2.24
			C439.48,284.07,439.76,285.47,441.3,285.75z M433.75,380.95c-0.14,0.28,0,0.42,0.28,0.42c0.56,0.14,0.7-0.14,0.84-0.7
			c-0.14-0.28,0-0.7-0.56-0.7C433.75,379.97,433.88,380.53,433.75,380.95z"/>
		<path class="st2" d="M498.42,288.83c0.14,0.14,0.7,0.14,0.98,0c5.88-0.98,11.9-0.84,17.78-1.82c1.54-0.14,3.08-0.56,4.62-0.56
			c2.8-0.14,5.88,1.96,7.28,4.9c-3.22,0.84-6.44,1.54-9.66,1.54c-3.22-0.14-6.3-0.28-9.52-0.14c-2.94,0.14-5.88,0.98-8.82,1.12
			c-0.84,0-1.26,0.56-1.54,1.4c-0.98,4.06-0.14,7.98,0.42,12.04c0.14,1.4,0,2.8,0,4.34c-0.28,6.02-0.56,12.04,0,18.2
			c4.62-0.7,9.1,0.56,13.58-0.14c2.24-0.42,3.5,1.54,5.32,2.8c-1.12,0.98-1.96,1.54-3.08,1.68c-1.4,0.14-2.66,0.42-4.06,0.98
			c-3.22,1.12-6.58,1.26-10.08,1.4c-1.82,0.14-1.82,0.14-1.68,1.96c0.14,3.36,0.14,6.72,0,10.22c-0.14,3.64-0.7,7.42-0.42,11.2
			c0.14,1.26-0.14,2.66-0.42,3.92c-0.84,3.36-1.12,6.86-0.7,10.36c0.28,1.4,0.84,1.82,2.1,1.68c0.98,0,1.96-0.42,3.08-0.14
			c0.28,0.14,0.7,0.28,0.7,0.98c-1.54,1.4-4.34-0.14-6.02,1.96c1.12,0.56,1.96,0.14,2.8-0.14c4.9-1.26,9.8-1.96,14.7-3.36
			c2.52-0.7,5.18-0.28,7.7-0.84c0.7-0.14,1.4,0.14,1.96,0.56c0.84,0.84,1.68,1.54,2.52,2.24c-0.84,1.12-2.38,0.56-3.36,1.26
			c-0.28,0.84,0.56,1.26,0.84,1.96c0.7,0.98,0.42,1.82-0.84,1.82c-2.24-0.14-4.2,0.84-6.3,1.4c-1.54,0.28-3.08,0.7-4.62,0.7
			c-4.34,0-8.54,0-12.74,0.84c-1.12,0.28-2.1,0.28-2.38,1.96c-0.14,1.12-0.98,1.26-1.96,0.42c-1.12-0.84-2.1-0.42-3.22-0.28
			c-5.46,0.84-10.78,1.26-16.38,1.12c-0.84,0-1.54-0.7-2.38-0.98c-0.7-0.28-0.84-0.84-0.84-1.4c0-0.84,0.42-1.12,1.12-1.26
			c2.24-0.7,4.48-0.98,7-2.24c0-3.22-0.14-6.44,0-9.8c0.84-10.36,0.28-20.16,1.12-30.52c0.7-10.08,0.98-20.3,1.26-30.38
			c0.14-5.04-0.28-10.08-0.28-14.98c0-1.26-0.56-1.82-1.68-1.82c-1.82,0-1.54-0.98-3.36-1.26c-0.84-0.14-1.54-0.42-1.96-1.4
			c2.94-0.98,3.92-0.98,6.72-1.54c0.14-0.84,0.28-1.54,0.28-2.24c0-1.4,0.14-2.52,1.96-2.24c0.14,0,0.42,0,0.42-0.14
			c2.52-2.38,4.9-0.98,7.42-0.14C495.62,286.73,497.3,287.15,498.42,288.83z M483.58,382.21c2.24-0.28,2.24-0.28,1.96-1.82
			c-0.14-0.98,0.14-3.36-0.7-4.34C483.3,377.45,483.86,380.53,483.58,382.21z"/>
		<path class="st2" d="M557.36,285.19c0.84-0.28,2.1,3.5,2.38,4.76c0-3.5,0.56-6.02,2.52-0.7c0.98,2.52,2.24,5.04,2.94,7.7
			c0.7,3.08,1.96,6.02,2.38,9.1c0.28,2.38,0.56,1.68,1.68,3.78c1.96,3.5,1.82,7.56,2.8,11.34c1.68,6.3,3.92,12.32,6.3,18.34
			c1.82,4.48,2.52,9.38,3.5,14.28c0.28,1.26,0,2.66,0.28,4.06c1.4,5.18,3.08,10.36,5.18,15.4c1.26,2.94,2.38,6.3,2.1,9.94
			c-0.14,1.68-0.28,3.5-2.66,3.78c0,0.14,0.28,1.4-1.26,1.54c-0.7-0.7-1.68-0.84-2.38-2.24c-0.28-0.56-1.26-0.28-1.4-0.98
			c-0.56-1.54-2.52-1.96-2.8-0.7c-0.56,2.52-3.22,0.98-4.9,1.4c-1.12,0.42-1.82,0-2.1-1.12c-1.54-4.62-3.08-9.1-4.2-13.58
			c-0.98-3.78-2.94-7.28-3.64-11.2c-0.28-1.4-1.26-1.82-2.52-1.82c-5.46,0.28-9.66-0.14-15.26,0.56c-1.26,0.14-3.64-0.42-4.48,0.56
			c-0.84,0.84-0.7,2.38-1.12,3.64c-0.56,2.66-1.4,5.04-1.68,7.7l-1.12,9.66c-0.14,1.12-0.28,2.38-0.56,3.5
			c-0.28,1.68-0.98,2.1-3.08,1.54c-0.56-0.14-1.54-3.22-2.1-0.98c-0.28,1.26-1.4-2.24-1.26-3.64c0.7-6.3,1.68-12.32,3.36-18.34
			l0.42-2.1c0.28-1.96,0.28-1.82-1.54-2.38c-0.98-0.28-2.1-0.42-2.66-1.54c0.56-1.26,1.82-0.98,2.8-1.12
			c3.22-0.84,2.8-0.14,3.22-3.36c0.7-4.76,2.52-10.78,3.08-15.54c0.84-7,1.96-12.46,3.64-19.32c1.26-5.18,1.68-7.14,2.38-12.32
			c0.7-4.2,1.4-8.4,1.96-12.46c0.14-0.98,0.28-2.1-0.14-3.08c-0.28-0.98-0.42-2.38,0.98-2.94c1.4-0.56,2.8-2.24,4.48-1.26
			C554.42,285.75,555.96,285.47,557.36,285.19z M550.36,308.71c0.14,2.94-0.42,5.88-1.26,8.68c-0.98,3.5-0.56,7.28-1.82,10.78
			c-1.12,3.5-1.82,7-2.24,10.78c-0.56,4.76-1.4,9.52-2.24,14.28c4.62-0.28,9.66-0.42,14.14-0.7c0.84,0,1.68-0.28,2.52-0.56
			c2.1-0.42,2.24-0.7,1.54-2.66c-1.26-3.22-1.68-6.72-2.66-10.08c-0.84-2.8-0.98-5.88-1.96-8.82c-1.26-3.5-1.96-7.28-2.38-10.92
			c-0.42-4.06-1.26-8.12-2.8-12.32C550.5,307.73,550.22,308.29,550.36,308.71z M572.34,330.97c0.28-0.98-0.98-6.02-1.68-6.44
			C569.54,325.65,572.06,330.13,572.34,330.97z"/>
		<path class="st2" d="M618.82,288.13c4.06,0.28,8.26,0.28,11.76,2.66c1.96,1.54,4.2,2.52,6.44,3.36c1.82,0.84,3.08,2.24,3.78,4.2
			c1.68,4.2,3.36,8.4,2.94,13.16c-0.14,1.54,0.7,2.8,0.7,4.34c0.14,6.02-2.66,10.5-6.86,14.42c-1.96,1.82-4.48,2.94-6.72,4.48
			c-0.7,0.56-1.26,1.12-2.38,1.4c0.14-1.26,1.54-1.54,1.54-2.8c-1.82,0.42-2.94,1.68-4.2,2.8c-0.56,0.56,0.14,1.4,0.7,1.82
			c1.96,1.68,3.78,3.64,5.6,5.46c2.94,2.8,4.62,6.3,6.02,9.94c2.24,5.88,4.62,11.76,7.28,17.36c0.42,0.98,0.84,1.96,0.98,3.08
			c0.56,2.1,1.4,4.34,2.38,6.3c0.7,1.12,0.42,2.1,0.28,3.22c-0.14,1.26-0.42,1.96-1.82,2.1c-0.14,0-0.42,0.42-0.56,0.7
			c-0.56,0.84-1.26,0.98-1.96,0.28c-1.4-1.26-2.66-1.96-4.34-0.7c-0.28,0.28-1.12,0.28-1.54,0c-2.24-1.4-4.9-2.52-6.16-5.04
			c-0.56-1.26-1.26-2.38-1.96-3.5c-4.48-9.24-8.4-18.62-12.18-28.14c-0.56-1.4-1.12-2.66-1.96-4.06c-1.82,0.98-3.08,2.24-2.66,4.48
			v1.12c-1.12,5.18,0,10.36,0,15.68c0.14,4.9,0.56,9.94-0.14,14.84c-0.28,1.26,0.28,2.94-2.1,2.66c-0.42-0.14-0.7,0.42-0.7,0.84
			c-0.28,0.7-0.42,1.4-0.56,2.1c-2.1-0.84-3.5-2.52-5.32-4.06c-1.68,1.68-3.64,2.1-5.6,0.84c-2.24-1.26-3.36-3.08-3.5-5.74
			c-0.14-2.24,0.56-4.34,0.42-6.58c-0.28-6.3-0.28-12.74-0.56-19.04c0-1.26-0.28-2.38-0.42-3.64c-1.4-7.14-1.54-14.42-1.12-21.7
			c0.42-7.42,0.42-14.7,0.7-22.12c0.14-3.5,0.56-6.86,0.28-10.5c0-0.7,0.14-1.4-0.28-2.1c-1.54,0-2.94,0.98-4.48,0.84
			c-0.42-0.7,0.84-1.12,0.14-1.68c-1.12-1.12-0.42-1.68,0.7-2.1c5.04-1.68,10.22-2.52,15.68-1.82
			C610.98,287.85,614.9,287.85,618.82,288.13z M612.66,334.89c0.84-0.42,1.12-0.56,1.26-0.7c4.62-4.62,9.38-8.96,13.16-14.28
			c2.52-3.64,3.36-7.84,4.06-12.04c0-0.7-0.14-1.26-0.42-1.82c-0.56-1.12-0.84-2.24-0.7-3.5c0.14-0.98-0.28-1.68-1.26-2.1
			c-0.7-0.28-1.26-0.84-1.96-1.26c-2.52-1.96-4.9-4.2-8.4-5.18c-2.1-0.56-3.92-0.42-6.16-0.42
			C613.22,307.31,613.08,320.89,612.66,334.89z"/>
		<path class="st2" d="M709.68,285.19c0.84-0.28,2.1,3.5,2.38,4.76c0-3.5,0.56-6.02,2.52-0.7c0.98,2.52,2.24,5.04,2.94,7.7
			c0.7,3.08,1.96,6.02,2.38,9.1c0.28,2.38,0.56,1.68,1.68,3.78c1.96,3.5,1.82,7.56,2.8,11.34c1.68,6.3,3.92,12.32,6.3,18.34
			c1.82,4.48,2.52,9.38,3.5,14.28c0.28,1.26,0,2.66,0.28,4.06c1.4,5.18,3.08,10.36,5.18,15.4c1.26,2.94,2.38,6.3,2.1,9.94
			c-0.14,1.68-0.28,3.5-2.66,3.78c0,0.14,0.28,1.4-1.26,1.54c-0.7-0.7-1.68-0.84-2.38-2.24c-0.28-0.56-1.26-0.28-1.4-0.98
			c-0.56-1.54-2.52-1.96-2.8-0.7c-0.56,2.52-3.22,0.98-4.9,1.4c-1.12,0.42-1.82,0-2.1-1.12c-1.54-4.62-3.08-9.1-4.2-13.58
			c-0.98-3.78-2.94-7.28-3.64-11.2c-0.28-1.4-1.26-1.82-2.52-1.82c-5.46,0.28-9.66-0.14-15.26,0.56c-1.26,0.14-3.64-0.42-4.48,0.56
			c-0.84,0.84-0.7,2.38-1.12,3.64c-0.56,2.66-1.4,5.04-1.68,7.7l-1.12,9.66c-0.14,1.12-0.28,2.38-0.56,3.5
			c-0.28,1.68-0.98,2.1-3.08,1.54c-0.56-0.14-1.54-3.22-2.1-0.98c-0.28,1.26-1.4-2.24-1.26-3.64c0.7-6.3,1.68-12.32,3.36-18.34
			l0.42-2.1c0.28-1.96,0.28-1.82-1.54-2.38c-0.98-0.28-2.1-0.42-2.66-1.54c0.56-1.26,1.82-0.98,2.8-1.12
			c3.22-0.84,2.8-0.14,3.22-3.36c0.7-4.76,2.52-10.78,3.08-15.54c0.84-7,1.96-12.46,3.64-19.32c1.26-5.18,1.68-7.14,2.38-12.32
			c0.7-4.2,1.4-8.4,1.96-12.46c0.14-0.98,0.28-2.1-0.14-3.08c-0.28-0.98-0.42-2.38,0.98-2.94c1.4-0.56,2.8-2.24,4.48-1.26
			C706.74,285.75,708.28,285.47,709.68,285.19z M702.68,308.71c0.14,2.94-0.42,5.88-1.26,8.68c-0.98,3.5-0.56,7.28-1.82,10.78
			c-1.12,3.5-1.82,7-2.24,10.78c-0.56,4.76-1.4,9.52-2.24,14.28c4.62-0.28,9.66-0.42,14.14-0.7c0.84,0,1.68-0.28,2.52-0.56
			c2.1-0.42,2.24-0.7,1.54-2.66c-1.26-3.22-1.68-6.72-2.66-10.08c-0.84-2.8-0.98-5.88-1.96-8.82c-1.26-3.5-1.96-7.28-2.38-10.92
			c-0.42-4.06-1.26-8.12-2.8-12.32C702.82,307.73,702.54,308.29,702.68,308.71z M724.66,330.97c0.28-0.98-0.98-6.02-1.68-6.44
			C721.86,325.65,724.38,330.13,724.66,330.97z"/>
		<path class="st2" d="M771.14,288.13c4.06,0.28,8.26,0.28,11.76,2.66c1.96,1.54,4.2,2.52,6.44,3.36c1.82,0.84,3.08,2.24,3.78,4.2
			c1.68,4.2,3.36,8.4,2.94,13.16c-0.14,1.54,0.7,2.8,0.7,4.34c0.14,6.02-2.66,10.5-6.86,14.42c-1.96,1.82-4.48,2.94-6.72,4.48
			c-0.7,0.56-1.26,1.12-2.38,1.4c0.14-1.26,1.54-1.54,1.54-2.8c-1.82,0.42-2.94,1.68-4.2,2.8c-0.56,0.56,0.14,1.4,0.7,1.82
			c1.96,1.68,3.78,3.64,5.6,5.46c2.94,2.8,4.62,6.3,6.02,9.94c2.24,5.88,4.62,11.76,7.28,17.36c0.42,0.98,0.84,1.96,0.98,3.08
			c0.56,2.1,1.4,4.34,2.38,6.3c0.7,1.12,0.42,2.1,0.28,3.22c-0.14,1.26-0.42,1.96-1.82,2.1c-0.14,0-0.42,0.42-0.56,0.7
			c-0.56,0.84-1.26,0.98-1.96,0.28c-1.4-1.26-2.66-1.96-4.34-0.7c-0.28,0.28-1.12,0.28-1.54,0c-2.24-1.4-4.9-2.52-6.16-5.04
			c-0.56-1.26-1.26-2.38-1.96-3.5c-4.48-9.24-8.4-18.62-12.18-28.14c-0.56-1.4-1.12-2.66-1.96-4.06c-1.82,0.98-3.08,2.24-2.66,4.48
			v1.12c-1.12,5.18,0,10.36,0,15.68c0.14,4.9,0.56,9.94-0.14,14.84c-0.28,1.26,0.28,2.94-2.1,2.66c-0.42-0.14-0.7,0.42-0.7,0.84
			c-0.28,0.7-0.42,1.4-0.56,2.1c-2.1-0.84-3.5-2.52-5.32-4.06c-1.68,1.68-3.64,2.1-5.6,0.84c-2.24-1.26-3.36-3.08-3.5-5.74
			c-0.14-2.24,0.56-4.34,0.42-6.58c-0.28-6.3-0.28-12.74-0.56-19.04c0-1.26-0.28-2.38-0.42-3.64c-1.4-7.14-1.54-14.42-1.12-21.7
			c0.42-7.42,0.42-14.7,0.7-22.12c0.14-3.5,0.56-6.86,0.28-10.5c0-0.7,0.14-1.4-0.28-2.1c-1.54,0-2.94,0.98-4.48,0.84
			c-0.42-0.7,0.84-1.12,0.14-1.68c-1.12-1.12-0.42-1.68,0.7-2.1c5.04-1.68,10.22-2.52,15.68-1.82
			C763.3,287.85,767.22,287.85,771.14,288.13z M764.98,334.89c0.84-0.42,1.12-0.56,1.26-0.7c4.62-4.62,9.38-8.96,13.16-14.28
			c2.52-3.64,3.36-7.84,4.06-12.04c0-0.7-0.14-1.26-0.42-1.82c-0.56-1.12-0.84-2.24-0.7-3.5c0.14-0.98-0.28-1.68-1.26-2.1
			c-0.7-0.28-1.26-0.84-1.96-1.26c-2.52-1.96-4.9-4.2-8.4-5.18c-2.1-0.56-3.92-0.42-6.16-0.42
			C765.54,307.31,765.4,320.89,764.98,334.89z"/>
		<path class="st2" d="M827.28,288.83c0.14,0.14,0.7,0.14,0.98,0c5.88-0.98,11.9-0.84,17.78-1.82c1.54-0.14,3.08-0.56,4.62-0.56
			c2.8-0.14,5.88,1.96,7.28,4.9c-3.22,0.84-6.44,1.54-9.66,1.54c-3.22-0.14-6.3-0.28-9.52-0.14c-2.94,0.14-5.88,0.98-8.82,1.12
			c-0.84,0-1.26,0.56-1.54,1.4c-0.98,4.06-0.14,7.98,0.42,12.04c0.14,1.4,0,2.8,0,4.34c-0.28,6.02-0.56,12.04,0,18.2
			c4.62-0.7,9.1,0.56,13.58-0.14c2.24-0.42,3.5,1.54,5.32,2.8c-1.12,0.98-1.96,1.54-3.08,1.68c-1.4,0.14-2.66,0.42-4.06,0.98
			c-3.22,1.12-6.58,1.26-10.08,1.4c-1.82,0.14-1.82,0.14-1.68,1.96c0.14,3.36,0.14,6.72,0,10.22c-0.14,3.64-0.7,7.42-0.42,11.2
			c0.14,1.26-0.14,2.66-0.42,3.92c-0.84,3.36-1.12,6.86-0.7,10.36c0.28,1.4,0.84,1.82,2.1,1.68c0.98,0,1.96-0.42,3.08-0.14
			c0.28,0.14,0.7,0.28,0.7,0.98c-1.54,1.4-4.34-0.14-6.02,1.96c1.12,0.56,1.96,0.14,2.8-0.14c4.9-1.26,9.8-1.96,14.7-3.36
			c2.52-0.7,5.18-0.28,7.7-0.84c0.7-0.14,1.4,0.14,1.96,0.56c0.84,0.84,1.68,1.54,2.52,2.24c-0.84,1.12-2.38,0.56-3.36,1.26
			c-0.28,0.84,0.56,1.26,0.84,1.96c0.7,0.98,0.42,1.82-0.84,1.82c-2.24-0.14-4.2,0.84-6.3,1.4c-1.54,0.28-3.08,0.7-4.62,0.7
			c-4.34,0-8.54,0-12.74,0.84c-1.12,0.28-2.1,0.28-2.38,1.96c-0.14,1.12-0.98,1.26-1.96,0.42c-1.12-0.84-2.1-0.42-3.22-0.28
			c-5.46,0.84-10.78,1.26-16.38,1.12c-0.84,0-1.54-0.7-2.38-0.98c-0.7-0.28-0.84-0.84-0.84-1.4c0-0.84,0.42-1.12,1.12-1.26
			c2.24-0.7,4.48-0.98,7-2.24c0-3.22-0.14-6.44,0-9.8c0.84-10.36,0.28-20.16,1.12-30.52c0.7-10.08,0.98-20.3,1.26-30.38
			c0.14-5.04-0.28-10.08-0.28-14.98c0-1.26-0.56-1.82-1.68-1.82c-1.82,0-1.54-0.98-3.36-1.26c-0.84-0.14-1.54-0.42-1.96-1.4
			c2.94-0.98,3.92-0.98,6.72-1.54c0.14-0.84,0.28-1.54,0.28-2.24c0-1.4,0.14-2.52,1.96-2.24c0.14,0,0.42,0,0.42-0.14
			c2.52-2.38,4.9-0.98,7.42-0.14C824.48,286.73,826.16,287.15,827.28,288.83z M812.44,382.21c2.24-0.28,2.24-0.28,1.96-1.82
			c-0.14-0.98,0.14-3.36-0.7-4.34C812.16,377.45,812.72,380.53,812.44,382.21z"/>
		<path class="st2" d="M886.22,285.19c0.84-0.28,2.1,3.5,2.38,4.76c0-3.5,0.56-6.02,2.52-0.7c0.98,2.52,2.24,5.04,2.94,7.7
			c0.7,3.08,1.96,6.02,2.38,9.1c0.28,2.38,0.56,1.68,1.68,3.78c1.96,3.5,1.82,7.56,2.8,11.34c1.68,6.3,3.92,12.32,6.3,18.34
			c1.82,4.48,2.52,9.38,3.5,14.28c0.28,1.26,0,2.66,0.28,4.06c1.4,5.18,3.08,10.36,5.18,15.4c1.26,2.94,2.38,6.3,2.1,9.94
			c-0.14,1.68-0.28,3.5-2.66,3.78c0,0.14,0.28,1.4-1.26,1.54c-0.7-0.7-1.68-0.84-2.38-2.24c-0.28-0.56-1.26-0.28-1.4-0.98
			c-0.56-1.54-2.52-1.96-2.8-0.7c-0.56,2.52-3.22,0.98-4.9,1.4c-1.12,0.42-1.82,0-2.1-1.12c-1.54-4.62-3.08-9.1-4.2-13.58
			c-0.98-3.78-2.94-7.28-3.64-11.2c-0.28-1.4-1.26-1.82-2.52-1.82c-5.46,0.28-9.66-0.14-15.26,0.56c-1.26,0.14-3.64-0.42-4.48,0.56
			c-0.84,0.84-0.7,2.38-1.12,3.64c-0.56,2.66-1.4,5.04-1.68,7.7l-1.12,9.66c-0.14,1.12-0.28,2.38-0.56,3.5
			c-0.28,1.68-0.98,2.1-3.08,1.54c-0.56-0.14-1.54-3.22-2.1-0.98c-0.28,1.26-1.4-2.24-1.26-3.64c0.7-6.3,1.68-12.32,3.36-18.34
			l0.42-2.1c0.28-1.96,0.28-1.82-1.54-2.38c-0.98-0.28-2.1-0.42-2.66-1.54c0.56-1.26,1.82-0.98,2.8-1.12
			c3.22-0.84,2.8-0.14,3.22-3.36c0.7-4.76,2.52-10.78,3.08-15.54c0.84-7,1.96-12.46,3.64-19.32c1.26-5.18,1.68-7.14,2.38-12.32
			c0.7-4.2,1.4-8.4,1.96-12.46c0.14-0.98,0.28-2.1-0.14-3.08c-0.28-0.98-0.42-2.38,0.98-2.94c1.4-0.56,2.8-2.24,4.48-1.26
			C883.28,285.75,884.82,285.47,886.22,285.19z M879.22,308.71c0.14,2.94-0.42,5.88-1.26,8.68c-0.98,3.5-0.56,7.28-1.82,10.78
			c-1.12,3.5-1.82,7-2.24,10.78c-0.56,4.76-1.4,9.52-2.24,14.28c4.62-0.28,9.66-0.42,14.14-0.7c0.84,0,1.68-0.28,2.52-0.56
			c2.1-0.42,2.24-0.7,1.54-2.66c-1.26-3.22-1.68-6.72-2.66-10.08c-0.84-2.8-0.98-5.88-1.96-8.82c-1.26-3.5-1.96-7.28-2.38-10.92
			c-0.42-4.06-1.26-8.12-2.8-12.32C879.36,307.73,879.08,308.29,879.22,308.71z M901.2,330.97c0.28-0.98-0.98-6.02-1.68-6.44
			C898.4,325.65,900.92,330.13,901.2,330.97z"/>
	</g>
</g>
<g>
</g>
<g>
</g>
<g>
</g>
<g>
</g>
<g>
</g>
<g>
</g>
</svg>
