<?xml version="1.0" encoding="utf-8"?>
<!-- Generator: Adobe Illustrator 28.0.0, SVG Export Plug-In . SVG Version: 6.00 Build 0)  -->
<svg version="1.1" id="Layer_1" xmlns="http://www.w3.org/2000/svg" xmlns:xlink="http://www.w3.org/1999/xlink" x="0px" y="0px"
	 viewBox="0 0 1280 800" style="enable-background:new 0 0 1280 800;" xml:space="preserve">
<style type="text/css">
	.st0{fill:#B095C6;stroke:#7F3F98;stroke-width:16;stroke-miterlimit:10;}
	.st1{fill:#852990;stroke:#21409A;stroke-width:16;stroke-miterlimit:10;}
	.st2{enable-background:new    ;}
	.st3{fill:#6D6E71;}
	.st4{fill:#FFFFFF;}
</style>
<g>
	
		<image style="overflow:visible;enable-background:new    ;" width="3532" height="1951" xlink:href="458CC594.png"  transform="matrix(0.2402 0 0 0.3039 230.59 41.9149)">
	</image>
	<path class="st0" d="M701,344.1"/>
	<g>
		<g>
			<path d="M363.6,314.3c-21.3-20.1-38.2-45-38.5-67.8c-0.1-17.2,4.2-32.1,9.7-47.3c8.2-20.1,16.2-25.4,31.8-13
				c7.8,6.1,16.3,12.4,25.2,18.7c2.7,1.9,3.8,4.9,3.3,9.5c-0.8,7.4-1.6,14.7-2.4,21.9c-0.5,4.5-2,5.5-4.9,3.3
				c-7.9-5.9-15.6-11.8-23-17.7c-4.6-3.7-7.2-2.7-8.3,2.8c-2.4,12.9-4,25.9-3.4,40.1c0.2,5.9,3,10.8,8.3,15.4
				c8.5,7.2,16.9,14.4,25.3,21.2c3.1,2.6,4.7,5.8,5.4,10.9c1.1,8.1,2.7,16.6,4.8,25.5c1.4,5.6,0.8,7-2.3,4.3
				C384.3,333.3,374,323.9,363.6,314.3z"/>
			<path d="M423.8,367.9c-2.9-2.5-4.9-6.2-6.2-12c-10.9-49.6-5.5-86-2.6-127.6c0.3-4.8,1.7-6.1,4.6-4.2c6,3.9,12,7.8,18,11.6
				c2.9,1.8,4.1,4.9,3.9,9.9c-1.3,33-4.8,62.7-2.1,97.5c5.3,3.9,10.5,7.6,15.8,11.2c-0.7-11.6-0.8-22.7-0.6-33.4
				c0.1-5,1.5-6.3,4.4-4.5c5.6,3.5,11.1,6.9,16.6,10.1c2.8,1.7,4,4.5,3.8,9.6c-0.6,21.4-0.4,43.8,3.8,70.8c1,6.5,0.5,8.6-2.3,6.6
				C462.3,399.7,443.5,384.6,423.8,367.9z"/>
			<path d="M500.2,418.8c-1.5-10.6-2.5-20.5-3-29.9c-0.3-5.9,0.8-7.6,3.5-6.1c3.6,2,7.1,4,10.7,6c-0.7-26.2,1.1-48.5,2.4-71
				c-3.6-1.7-7.2-3.4-10.9-5.2c-2.8-1.4-3.9-4.2-3.6-9.2c0.4-8.1,0.8-16.2,1-24.6c0.1-5.2,1.4-6.9,4.1-5.6
				c15.8,7.6,31.1,14.1,46,19.3c2.6,0.9,3.8,3.7,3.6,8.9c-0.2,8.4-0.5,16.6-0.9,24.8c-0.3,5.1-1.5,6.9-4.2,6
				c-3.4-1.2-6.8-2.5-10.3-3.8c-1.3,22.7-3.1,45.5-2.6,72.8c3.5,1.6,6.9,3.1,10.3,4.6c2.7,1.1,3.8,4.3,4.1,10.8
				c0.4,10.3,1.2,21.4,2.6,33.3c0.9,7.6,0.3,10.6-2.3,9.1c-14.9-8.1-30-17.4-45.1-27.8C503,429.5,501.2,425.5,500.2,418.8z"/>
			<path d="M577.7,472.1c-2.6-1.1-4.3-5.4-5.1-13.2c-6.4-67.4,0.4-106.4,0.7-151.6c0.1-5.2,1.2-7.2,3.8-6.5c5.5,1.5,10.9,2.8,16.3,4
				c2.1,0.5,3.4,2.4,4.6,7.3c2.9,12,5.6,23.5,8.4,35.3c0.7,2.6,0.9,3.7,1.7,3.8c0.3,0,0.6,0.1,0.9,0.1c0.8,0.1,1.2-0.9,1.9-3.2
				c3.3-10.8,6.4-21.4,9.4-32.4c1.2-4.5,2.5-6,4.5-5.8c5.3,0.6,10.6,1,15.9,1.3c2.5,0.1,3.6,2.5,3.6,7.7c0.6,45,0,85.6,2.3,158.6
				c0.3,8.5-0.7,12.4-3.2,12.2c-5.2-0.5-10.5-1.2-15.7-2.2c-2.7-0.5-4-4.7-4.5-13c-2.3-39.2-2.2-68.9-1.9-95.2
				c-2.1,7.9-4.3,16-6.4,24.7c-1.3,5.5-2.8,7.5-5.6,7c-1.4-0.3-2.8-0.5-4.2-0.8c-2.8-0.5-4.4-3.2-5.6-9.1c-2-9.3-3.9-18.1-5.7-26.5
				c-0.8,25.9-1.4,54.8,1.9,92.9c0.7,8.1,0,11.6-2.6,10.7C588,476.4,582.9,474.4,577.7,472.1z"/>
			<path d="M671.2,490.1c-2.5,0.2-3.7-3.8-3.8-12.3c-0.7-73-2.4-113.7-3.4-158.7c-0.1-5.2,0.9-7.5,3.3-7.6
				c10.4-0.4,20.8-1.3,31.3-2.8c13-1.9,19.4,6.8,20.9,28.2c0.2,3.3,0.5,6.5,0.7,9.8c0.9,11.5-0.5,19.5-4.4,24
				c9,0.1,14.2,8.8,15.3,32.5c0.3,7.5,0.6,15.3,0.6,23.6c0.1,30.4-8.3,52.5-21.7,56.2C697.2,486.9,684.2,489.3,671.2,490.1z
				 M688.5,368.2c2.9-0.3,5.8-0.6,8.7-1c2.7-0.4,3.7-3.4,3.4-9c-0.1-2-0.2-3.9-0.3-5.9c-0.3-5.6-1.7-8.1-4.3-7.8
				c-2.9,0.4-5.7,0.7-8.6,1C687.7,352.9,688.1,360.4,688.5,368.2z M690.8,434.3c4.6-0.6,9.2-1.4,13.8-2.3c2.8-0.5,4-4.5,3.8-11.6
				c-0.1-3.4-0.2-6.8-0.3-10.1c-0.2-6.8-1.7-9.4-4.4-8.9c-4.6,0.8-9.1,1.4-13.7,2C690.3,413.1,690.6,423.3,690.8,434.3z"/>
			<path d="M747.3,458c0.9-12.4,1.2-23.7,1.2-34.3c0-6.7,1-9.8,3.7-10.8c3.5-1.3,7-2.6,10.4-4.1c-0.6-28-3.3-51-5.4-73.7
				c-3.4,1.1-6.9,2.2-10.3,3.2c-2.6,0.8-3.9-1.2-4.4-6.2c-0.7-8.2-1.3-16.4-1.8-24.7c-0.3-5.2,0.7-7.8,3.2-8.6
				c14.5-4.3,29.3-9.6,44.5-16.2c2.7-1.2,4,0.6,4.3,5.8c0.6,8.3,1.3,16.4,2,24.4c0.5,5-0.5,7.7-3.2,8.9c-3.5,1.5-6.9,3-10.4,4.4
				c2.2,22.4,5,44.9,5.5,71.7c3.4-1.7,6.8-3.4,10.3-5.2c2.6-1.4,3.9,0.5,3.8,6.5c-0.1,9.6-0.6,19.8-1.7,30.8c-0.7,7-2.4,11-5,12.7
				c-14.8,9.5-29.6,18-44.2,25C747.5,469,746.7,465.8,747.3,458z"/>
			<path d="M821.3,424.4c-2.7,1.9-3.3-0.4-2.5-7c5.9-56.9-3.2-93.8-5.7-138.3c-0.3-5.1,0.8-8,3.5-9.4c3.8-1.9,7.7-3.9,11.6-6
				c2.9-1.6,4.8-1.1,7,2c8.3,11.1,17.3,21,26.1,30.4c-1.3-13.6-2.8-27.1-4-41.3c-0.4-5,0.7-8,3.6-9.7c5.7-3.5,11.4-7,17.1-10.7
				c2.9-1.8,4.3-0.5,4.8,4.4c4,42.1,11.3,78,2.8,127.7c-1,5.8-2.8,9.5-5.6,11.9c-5.6,4.7-11.1,9.3-16.6,13.7
				c-2.7,2.2-3.4,0.4-2.5-5.7c1.4-9.9,2.3-19.2,2.7-28c-5.6-10.3-12.6-20.1-20.1-29.9c1.7,21.8,2.4,44.5-1.2,72.1
				c-0.8,6.3-2.5,10.1-5.2,12.2C831.8,416.7,826.5,420.6,821.3,424.4z"/>
			<path d="M935,329.5c-20.8,19.2-24.8,10.7-23.4-16.9c1-20.5-0.8-39.1-3.3-57.9c-3.5-25.1,4.2-43.7,21.6-56.4
				c8.6-6.4,16.7-12.6,23.8-18.7c2.1-1.8,3.5-0.8,4.8,3.1c2,6.4,4.2,12.6,6.3,18.7c1.3,3.8,0.8,6.4-1.7,8.5
				c-6.9,5.8-14.3,11.9-22,17.9c-4.7,3.6-6.3,8-5.3,13.8c2.3,13.5,3.9,27.2,3.6,41.9c-0.1,6.3,1.5,7.6,5.3,4.4c4-3.4,8-6.9,12-10.4
				c0.5-9.5,0.1-18.5-0.9-27.1c-0.5-4.2,0.5-7,3.3-9.4c5.9-4.9,11.7-9.8,17.2-14.6c2.7-2.3,4.3-1.7,5.2,2c3.7,15.5,4.3,32-0.3,52.2
				c-1.1,4.9-3.2,8.6-6.4,11.6C961.3,305.1,947.9,317.7,935,329.5z"/>
		</g>
	</g>
	<path class="st1" d="M654.8,189.6"/>
	<g>
		<g class="st2">
			<path d="M309.7,676.4c-5,0-7.2-2.7-7.2-8.7V511.4c0-6,2.2-8.7,7.2-8.7h66.8c30.1,0,39.5,16.4,39.5,40.3v11.1
				c0,13.5-2.8,23.2-11.2,27.5c14.7,1.9,24.3,14.7,24.3,35v51.2c0,6-2.2,8.7-7.2,8.7h-31.1c-5,0-7.2-2.7-7.2-8.7v-36.9
				c0-7.2-2-10.4-7.6-10.4h-28.1v47.3c0,6-2.2,8.7-7.2,8.7H309.7z M347.8,577h15.1c7,0,8.8-4.8,8.8-11.3v-8.2
				c0-6.5-1.8-11.3-8.8-11.3h-15.1V577z"/>
		</g>
		<g class="st2">
			<path d="M661.3,676.4c-33.7,0-49.4-15.7-49.4-49.2v-75c0-33.8,15.7-49.5,49.4-49.5h49c5,0,7.2,2.7,7.2,8.7v29.2
				c0,6-2.2,8.7-7.2,8.7H670c-8.4,0-12.2,3.9-12.2,12.1v57.4c0,8,3.8,11.6,12.2,11.6h40.3c5,0,7.2,2.7,7.2,8.7v28.7
				c0,6-2.2,8.7-7.2,8.7H661.3z"/>
			<path d="M747.4,676.4c-5,0-7.2-2.7-7.2-8.7V511.4c0-6,2.2-8.7,7.2-8.7h31.1c5,0,7.2,2.7,7.2,8.7v55.5h8l20.7-56.2
				c2-5.8,4.8-8,10-8h30.9c4.6,0,6.2,2.9,4.4,8l-20.5,56.2c15.1,1,24.7,13.5,24.7,32.8v68c0,6-2.2,8.7-7.2,8.7h-30.9
				c-5,0-7.2-2.7-7.2-8.7v-47.1c0-5.3-2.2-8.2-6.4-8.2h-26.5v55.3c0,6-2.2,8.7-7.2,8.7H747.4z"/>
			<path d="M893.6,676.4c-5,0-7.2-2.7-7.2-8.7v-28.2c0-6,2.2-8.7,7.2-8.7h54c3.4,0,5.2-3.1,5.2-7c0-5.6-1.8-7.7-5.2-8.2l-30.1-5.1
				c-18.9-3.4-31.1-13-31.1-40.1v-25.3c0-27.5,15.5-42.5,41.6-42.5h56.2c5,0,7.2,2.7,7.2,8.7v28.7c0,6-2.2,8.7-7.2,8.7h-46.8
				c-3.4,0-5.4,2.9-5.4,7.2c0,4.3,2,7.2,5.4,7.7l29.9,4.8c18.9,3.4,31.3,13,31.3,40.1V634c0,27.5-15.7,42.5-41.6,42.5H893.6z"/>
		</g>
		<g>
			<circle cx="517.9" cy="588.3" r="88.1"/>
			<polygon class="st3" points="563.5,613.3 517.9,638.3 472.2,613.3 472.2,563.3 517.9,538.3 563.5,563.3 			"/>
		</g>
	</g>
	<path class="st0" d="M682,385"/>
	<path class="st4" d="M594,540.9"/>
</g>
</svg>
