<?xml version="1.0" encoding="utf-8"?>
<!-- Generator: Adobe Illustrator 28.0.0, SVG Export Plug-In . SVG Version: 6.00 Build 0)  -->
<svg version="1.1" id="Layer_1" xmlns="http://www.w3.org/2000/svg" xmlns:xlink="http://www.w3.org/1999/xlink" x="0px" y="0px"
	 viewBox="0 0 1280 800" style="enable-background:new 0 0 1280 800;" xml:space="preserve">
<style type="text/css">
	.st0{fill:#BB7AB4;stroke:#7F3F98;stroke-width:10;stroke-miterlimit:10;}
	.st1{fill:none;}
</style>
<path class="st0" d="M1137.02,647.68c-36.11-0.22-72.22-0.43-108.33-0.65c0.17,22.59,0.34,45.17,0.51,67.76
	c36.62-0.97,73.25-1.95,109.87-2.92c0.57,2.2,1.09,4.48,1.53,6.82c3.49,18.41,1.51,35.18-2.02,48.74
	c16.68-19.38,38.77-41.21,67.44-61.9c12.06-8.7,23.86-16.19,35.11-22.62c-12.76-7.14-26.57-15.89-40.73-26.61
	c-27.5-20.82-47.86-42.65-62.54-61.2c2.69,10.7,4.61,25.19,1.72,41.7C1138.91,640.67,1138.03,644.31,1137.02,647.68z"/>
<g>
	<path d="M1087.84,655.71c1.26,0.07,2.31,0.14,3.29-0.21c0.7-0.21,1.33-0.14,2.03-0.07c1.05,0.14,1.96,0.49,2.73,1.05
		c1.12,0.7,1.82,1.89,1.89,3.22c0.14,1.33,0,2.66-0.21,3.99l-0.21,2.17c-0.07,0.35-0.07,0.7-0.28,0.84
		c-0.91,0.56-0.7,1.54-1.12,2.38c-0.42,0-0.84-0.21-1.26,0c-1.12,0.42-2.1-0.14-2.52-1.33c-0.21-0.49-0.21-1.05-0.21-1.54
		c-0.14-1.61-0.21-3.22-0.28-4.9c-0.07-0.84-0.35-1.68-0.49-2.52c-0.07-0.56-0.42-0.91-0.91-1.05c-2.1-0.7-4.2,0.07-5.18,2.03
		c-0.7,1.47-1.54,2.87-1.96,4.41c-0.63,2.38-1.26,4.76-0.98,7.28c0.21,1.82,0,3.64,0.07,5.39c0,1.47,0.14,2.87,0.07,4.34
		c-0.21,4.34,0.98,8.68,0.98,13.09c0,0.21,0.07,0.42,0.07,0.63c-0.7,2.17,0.35,3.92,1.26,5.74c0.56,1.12,0.84,1.19,1.96,0.63
		c1.75-0.91,2.94-2.17,4.9-2.8c0.42-0.14,0.63-0.42,0.63-0.91c-0.14-4.2,0.35-8.47,0.28-12.67c0-0.07,0-0.21-0.07-0.35
		c-1.47-0.42-2.8-1.05-4.41-0.84c-0.7,0.07-0.77-0.7-0.98-1.12c0.14-0.35,0.42-0.42,0.7-0.42c1.89,0,3.71-0.7,5.53-0.91h0.28
		c0.77-0.98,1.05-0.28,1.4,0.42c0.07,0.07,0.28,0.07,0.42,0.14c0.42-0.63,0.14-1.4,0.63-2.03c0.63,0.07,1.12,0.56,1.82,0.56
		c0.42,0,0.42,0.42,0.42,0.77c0.14,1.33,0.42,2.66,0.42,3.99c0.07,1.47,0,2.87,0.14,4.34c0.28,2.94,0.07,5.95,0.21,8.89
		c0.14,1.54,0.07,3.08,0.21,4.62c0.07,1.47-0.49,2.87-1.89,3.71c-0.21,0.14-0.21,0.49-0.56,0.56c-1.33-1.4-2.17-3.22-3.57-4.55
		c-0.56-0.49-0.49-1.33-0.77-1.96c-0.49,0-0.7,0.35-0.91,0.63c-0.98,1.19-1.89,2.38-3.43,2.73c-0.7,0.98-1.47,0.84-2.38,1.19
		c-1.05,0.42-2.24,0.35-3.36,0.21c-0.98-0.07-1.89-0.21-2.87-0.35c-1.4-0.21-3.29-0.84-3.85-2.66c-0.35-1.19-0.7-2.8-1.19-3.92
		c-0.56-1.26-0.56-2.59-0.56-3.92c0-2.73-0.49-4.9-0.63-7.56c-0.07-1.82,0.28-3.57,0.42-5.32c0-0.77,0.14-1.54,0.07-2.24
		c-0.21-1.75,0.35-3.5,0.21-5.25c-0.21-2.45,0.7-4.69,1.19-7.07c0.14-0.35,0.28-0.63,0.35-0.98c0.42-3.08,2.17-5.39,4.27-7.49
		c0.63-0.7,1.54-1.26,2.31-1.89c0.14-0.07,0.28-0.14,0.35-0.14c2.03,0,3.5-1.47,5.18-2.17c0.91-0.28,1.82-0.07,2.87-0.21
		C1089.8,655.36,1088.68,655.01,1087.84,655.71z M1075.24,672.3c-0.14,1.68-0.28,3.43-0.35,5.18c0,0.21,0.07,0.42,0.49,0.42
		c0-2.1,0.21-4.2,0.63-6.23c0-0.07-0.14-0.21-0.21-0.35C1075.38,671.53,1075.24,671.88,1075.24,672.3z"/>
	<path d="M1120.25,654.52c0.35,0.56-0.49,0.56-0.63,1.12c1.75-0.28,3.36-0.35,4.9,0.21c2.45,1.05,4.48,2.45,5.46,5.11
		c0.28,0.7,0.77,1.4,1.19,2.03c1.47,2.45,2.31,5.11,2.45,7.91c0.07,2.45,0.21,4.9,0.14,7.35c-0.07,2.59-0.07,5.25-0.28,7.91
		c-0.07,1.75-0.56,3.5-1.05,5.18c-0.63,2.24-1.61,4.34-2.1,6.65c-0.35,1.89-1.12,3.71-2.45,5.25c-0.42,0.49-0.98,0.7-1.47,1.05
		c-0.91,0.84-2.03,1.47-3.36,1.47c-0.49-0.07-1.05,0.14-1.33,0.42c-0.56,0.56-1.05,0.35-1.54,0.07c-0.42-0.28-0.84-0.56-0.63-1.26
		c0.07-0.35-0.21-0.63-0.49-1.05c-0.35,0.56-0.91,0.63-1.47,0.63c-0.49,0-1.05,0-1.54,0.07c-1.4,0.28-2.38-0.35-3.22-1.26
		c-0.35-0.35-0.7-0.77-0.98-1.26c-0.56-0.84-0.91-1.89-2.31-1.96c0.49-0.49,0.7-0.77,0.21-1.19c-2.03-1.61-2.45-3.92-2.66-6.37
		c-0.28-3.36-0.49-6.79-0.7-10.15c-0.07-1.05-0.07-2.03,0-3.01l0.35-7.21c0.28-3.57,0.98-7.07,2.38-10.36
		c0.77-1.89,1.96-3.5,3.5-4.83c0.7-0.56,1.68-0.98,2.52-1.47c0.7-0.49,1.33-1.12,2.24-0.84c0.21,0.07,0.49-0.14,0.77-0.28
		c0.21-0.07,0.42-0.21,0.7-0.28C1119.41,654.03,1119.97,654.03,1120.25,654.52z M1117.59,659.14c-0.91,0.91-1.75,2.03-2.1,3.22
		c-0.56,1.54-0.91,3.22-0.77,4.9c0.14,0.84,0.35,1.61,0.28,2.45c-0.14,2.31-0.07,4.62-0.21,6.93c-0.21,2.66,0,5.32,0.07,7.98
		c0.14,2.66,0.35,5.32,0.56,7.91c0.14,1.4,0.14,2.8,1.05,3.99c0.49,0.7,1.19,1.96,1.89,2.8c-1.33-0.07-1.75-1.61-2.66-1.96
		c0.28,0.49,0.49,1.05,0.7,1.54c0.21,0.35,0.35,0.7,0.63,0.98c0.21,0.28,0.42,0.77,0.84,0.7c0.84-0.07,1.19,0.49,1.54,1.05
		c0.21,0.35,0.49,0.77,0.98,0.7c1.12,0,2.59-1.33,2.66-2.45c0.14-1.82,0.63-3.64,0.91-5.39c0.42-2.52,0.91-4.9,1.05-7.42
		c0.14-2.8,0.28-5.6,0.56-8.4c0.28-3.71,0.98-7.49,0.42-11.27c-0.35-2.38-0.7-4.83-1.68-7.07c-0.35-0.98-1.12-1.61-2.1-1.82
		c-0.7-0.14-1.47-0.28-2.17-0.21C1119.13,658.3,1118.22,658.51,1117.59,659.14z"/>
	<path d="M1150.28,656.83c0.49,2.45,0.77,4.9,0.28,7.42c-0.42,2.38-0.7,5.46-0.7,7.91c0.07,1.82,0,3.57,0.14,5.32
		c0,0.49-0.14,0.98-0.21,1.47c-0.28,1.82-0.35,3.64-0.21,5.46c0.21,1.96-0.28,3.85-0.63,5.74c-0.14,0.77-0.21,1.61-0.7,2.38
		c-0.14,0.28-0.21,0.56-0.7,0.42c-0.35-0.14-0.35,0.49-0.63,0.77c-0.42,0.42-0.77-0.7-0.77-1.26c0-0.21-0.14-0.42-0.28-0.35
		c-0.63,0.42-0.63-0.14-0.7-0.42c-0.14-0.63-0.35-1.05-0.7-1.54c-0.63-0.98-0.7-2.1-0.63-3.29c0-0.21,0-0.35,0.07-0.56
		c-0.07-0.98,0-2.03-0.7-3.01c-0.7-1.05-0.28-2.1-0.28-3.22c-0.07-2.38-0.35-4.83-0.49-7.28c-0.07-1.4,0.07-2.8-0.35-4.13
		c-0.14-0.42-0.14-0.91-0.14-1.33l-0.21-3.71c-0.07-1.54,0.28-3.15,0.07-4.76c-0.14-0.98,1.26-1.33,1.54-2.31
		c0.21-0.77,0.98-0.7,1.12-0.14c0.42,2.17,1.4,2.03,0.98-0.7c-0.21-1.47,0.98-1.4,2.03-1.26
		C1148.6,654.66,1149.93,655.22,1150.28,656.83z M1147.83,698.55c1.19,0.63,1.82,1.33,2.73,2.38c0.14,0.14,0.28,0.35,0.21,0.56
		c-0.21,0.49-0.14,0.91,0,1.4c0.14,0.56-0.21,1.05-0.7,1.26c-1.26,0.42-2.31,1.75-3.71,1.26c-0.77,0-1.54,0.35-2.03-0.07
		s-0.35-1.26-0.49-1.82c-0.07-0.35-0.21-0.7-0.28-1.05c-0.21-0.84,0-1.61,0.63-2.1c0.84-0.77,1.68-1.4,2.66-1.89
		C1147.2,698.27,1147.48,698.34,1147.83,698.55z"/>
</g>
<g>
</g>
<g>
</g>
<g>
	<rect x="627.03" y="369.3" class="st1" width="313.58" height="107.82"/>
</g>
<g>
</g>
<g>
</g>
<g>
</g>
<g>
</g>
<g>
</g>
<g>
</g>
</svg>
