<?xml version="1.0" encoding="utf-8"?>
<!-- Generator: Adobe Illustrator 28.0.0, SVG Export Plug-In . SVG Version: 6.00 Build 0)  -->
<svg version="1.1" id="Layer_1" xmlns="http://www.w3.org/2000/svg" xmlns:xlink="http://www.w3.org/1999/xlink" x="0px" y="0px"
	 viewBox="0 0 1280 800" style="enable-background:new 0 0 1280 800;" xml:space="preserve">
<style type="text/css">
	.st0{fill:#BB7AB4;stroke:#87509D;stroke-width:10;stroke-miterlimit:10;}
	.st1{fill:none;}
</style>
<g>
	<path class="st0" d="M816.99,788.61H466.6c-29.51-2.37-51.4-27.97-49.62-55.73c1.63-25.4,22.72-46.81,49.62-48.85
		c116.79,0,233.59,0,350.38,0c29.57-1.08,54.34,22.52,54.96,51.15C872.59,764.64,847.44,789.7,816.99,788.61z"/>
	<g>
		<rect x="537.26" y="700.44" class="st1" width="334.7" height="85.09"/>
		<path d="M556.26,703.33c2.9,0.2,5.9,0.2,8.4,1.9c1.4,1.1,3,1.8,4.6,2.4c1.3,0.6,2.2,1.6,2.7,3c1.2,3,2.4,6,2.1,9.4
			c-0.1,1.1,0.5,2,0.5,3.1c0.1,4.3-1.9,7.5-4.9,10.3c-1.4,1.3-3.2,2.1-4.8,3.2c-0.5,0.4-0.9,0.8-1.7,1c0.1-0.9,1.1-1.1,1.1-2
			c-1.3,0.3-2.1,1.2-3,2c-0.4,0.4,0.1,1,0.5,1.3c1.4,1.2,2.7,2.6,4,3.9c2.1,2,3.3,4.5,4.3,7.1c1.6,4.2,3.3,8.4,5.2,12.4
			c0.3,0.7,0.6,1.4,0.7,2.2c0.4,1.5,1,3.1,1.7,4.5c0.5,0.8,0.3,1.5,0.2,2.3c-0.1,0.9-0.3,1.4-1.3,1.5c-0.1,0-0.3,0.3-0.4,0.5
			c-0.4,0.6-0.9,0.7-1.4,0.2c-1-0.9-1.9-1.4-3.1-0.5c-0.2,0.2-0.8,0.2-1.1,0c-1.6-1-3.5-1.8-4.4-3.6c-0.4-0.9-0.9-1.7-1.4-2.5
			c-3.2-6.6-6-13.3-8.7-20.1c-0.4-1-0.8-1.9-1.4-2.9c-1.3,0.7-2.2,1.6-1.9,3.2v0.8c-0.8,3.7,0,7.4,0,11.2c0.1,3.5,0.4,7.1-0.1,10.6
			c-0.2,0.9,0.2,2.1-1.5,1.9c-0.3-0.1-0.5,0.3-0.5,0.6c-0.2,0.5-0.3,1-0.4,1.5c-1.5-0.6-2.5-1.8-3.8-2.9c-1.2,1.2-2.6,1.5-4,0.6
			c-1.6-0.9-2.4-2.2-2.5-4.1c-0.1-1.6,0.4-3.1,0.3-4.7c-0.2-4.5-0.2-9.1-0.4-13.6c0-0.9-0.2-1.7-0.3-2.6c-1-5.1-1.1-10.3-0.8-15.5
			c0.3-5.3,0.3-10.5,0.5-15.8c0.1-2.5,0.4-4.9,0.2-7.5c0-0.5,0.1-1-0.2-1.5c-1.1,0-2.1,0.7-3.2,0.6c-0.3-0.5,0.6-0.8,0.1-1.2
			c-0.8-0.8-0.3-1.2,0.5-1.5c3.6-1.2,7.3-1.8,11.2-1.3C550.66,703.13,553.46,703.13,556.26,703.33z M551.86,736.74
			c0.6-0.3,0.8-0.4,0.9-0.5c3.3-3.3,6.7-6.4,9.4-10.2c1.8-2.6,2.4-5.6,2.9-8.6c0-0.5-0.1-0.9-0.3-1.3c-0.4-0.8-0.6-1.6-0.5-2.5
			c0.1-0.7-0.2-1.2-0.9-1.5c-0.5-0.2-0.9-0.6-1.4-0.9c-1.8-1.4-3.5-3-6-3.7c-1.5-0.4-2.8-0.3-4.4-0.3
			C552.26,717.04,552.16,726.74,551.86,736.74z"/>
		<path d="M600.56,703.83c0.1,0.1,0.5,0.1,0.7,0c4.2-0.7,8.5-0.6,12.7-1.3c1.1-0.1,2.2-0.4,3.3-0.4c2-0.1,4.2,1.4,5.2,3.5
			c-2.3,0.6-4.6,1.1-6.9,1.1c-2.3-0.1-4.5-0.2-6.8-0.1c-2.1,0.1-4.2,0.7-6.3,0.8c-0.6,0-0.9,0.4-1.1,1c-0.7,2.9-0.1,5.7,0.3,8.6
			c0.1,1,0,2,0,3.1c-0.2,4.3-0.4,8.6,0,13c3.3-0.5,6.5,0.4,9.7-0.1c1.6-0.3,2.5,1.1,3.8,2c-0.8,0.7-1.4,1.1-2.2,1.2
			c-1,0.1-1.9,0.3-2.9,0.7c-2.3,0.8-4.7,0.9-7.2,1c-1.3,0.1-1.3,0.1-1.2,1.4c0.1,2.4,0.1,4.8,0,7.3c-0.1,2.6-0.5,5.3-0.3,8
			c0.1,0.9-0.1,1.9-0.3,2.8c-0.6,2.4-0.8,4.9-0.5,7.4c0.2,1,0.6,1.3,1.5,1.2c0.7,0,1.4-0.3,2.2-0.1c0.2,0.1,0.5,0.2,0.5,0.7
			c-1.1,1-3.1-0.1-4.3,1.4c0.8,0.4,1.4,0.1,2-0.1c3.5-0.9,7-1.4,10.5-2.4c1.8-0.5,3.7-0.2,5.5-0.6c0.5-0.1,1,0.1,1.4,0.4
			c0.6,0.6,1.2,1.1,1.8,1.6c-0.6,0.8-1.7,0.4-2.4,0.9c-0.2,0.6,0.4,0.9,0.6,1.4c0.5,0.7,0.3,1.3-0.6,1.3c-1.6-0.1-3,0.6-4.5,1
			c-1.1,0.2-2.2,0.5-3.3,0.5c-3.1,0-6.1,0-9.1,0.6c-0.8,0.2-1.5,0.2-1.7,1.4c-0.1,0.8-0.7,0.9-1.4,0.3c-0.8-0.6-1.5-0.3-2.3-0.2
			c-3.9,0.6-7.7,0.9-11.7,0.8c-0.6,0-1.1-0.5-1.7-0.7c-0.5-0.2-0.6-0.6-0.6-1c0-0.6,0.3-0.8,0.8-0.9c1.6-0.5,3.2-0.7,5-1.6
			c0-2.3-0.1-4.6,0-7c0.6-7.4,0.2-14.4,0.8-21.8c0.5-7.2,0.7-14.5,0.9-21.7c0.1-3.6-0.2-7.2-0.2-10.7c0-0.9-0.4-1.3-1.2-1.3
			c-1.3,0-1.1-0.7-2.4-0.9c-0.6-0.1-1.1-0.3-1.4-1c2.1-0.7,2.8-0.7,4.8-1.1c0.1-0.6,0.2-1.1,0.2-1.6c0-1,0.1-1.8,1.4-1.6
			c0.1,0,0.3,0,0.3-0.1c1.8-1.7,3.5-0.7,5.3-0.1C598.56,702.33,599.76,702.63,600.56,703.83z M589.96,770.54
			c1.6-0.2,1.6-0.2,1.4-1.3c-0.1-0.7,0.1-2.4-0.5-3.1C589.76,767.14,590.16,769.34,589.96,770.54z"/>
		<path d="M646.86,701.24c0.6-0.2,1.5,2.5,1.7,3.4c0-2.5,0.4-4.3,1.8-0.5c0.7,1.8,1.6,3.6,2.1,5.5c0.5,2.2,1.4,4.3,1.7,6.5
			c0.2,1.7,0.4,1.2,1.2,2.7c1.4,2.5,1.3,5.4,2,8.1c1.2,4.5,2.8,8.8,4.5,13.1c1.3,3.2,1.8,6.7,2.5,10.2c0.2,0.9,0,1.9,0.2,2.9
			c1,3.7,2.2,7.4,3.7,11c0.9,2.1,1.7,4.5,1.5,7.1c-0.1,1.2-0.2,2.5-1.9,2.7c0,0.1,0.2,1-0.9,1.1c-0.5-0.5-1.2-0.6-1.7-1.6
			c-0.2-0.4-0.9-0.2-1-0.7c-0.4-1.1-1.8-1.4-2-0.5c-0.4,1.8-2.3,0.7-3.5,1c-0.8,0.3-1.3,0-1.5-0.8c-1.1-3.3-2.2-6.5-3-9.7
			c-0.7-2.7-2.1-5.2-2.6-8c-0.2-1-0.9-1.3-1.8-1.3c-3.9,0.2-6.9-0.1-10.9,0.4c-0.9,0.1-2.6-0.3-3.2,0.4c-0.6,0.6-0.5,1.7-0.8,2.6
			c-0.4,1.9-1,3.6-1.2,5.5l-0.8,6.9c-0.1,0.8-0.2,1.7-0.4,2.5c-0.2,1.2-0.7,1.5-2.2,1.1c-0.4-0.1-1.1-2.3-1.5-0.7
			c-0.2,0.9-1-1.6-0.9-2.6c0.5-4.5,1.2-8.8,2.4-13.1l0.3-1.5c0.2-1.4,0.2-1.3-1.1-1.7c-0.7-0.2-1.5-0.3-1.9-1.1
			c0.4-0.9,1.3-0.7,2-0.8c2.3-0.6,2-0.1,2.3-2.4c0.5-3.4,1.8-7.7,2.2-11.1c0.6-5,1.4-8.9,2.6-13.8c0.9-3.7,1.2-5.1,1.7-8.8
			c0.5-3,1-6,1.4-8.9c0.1-0.7,0.2-1.5-0.1-2.2c-0.2-0.7-0.3-1.7,0.7-2.1c1-0.4,2-1.6,3.2-0.9
			C644.76,701.63,645.86,701.44,646.86,701.24z M641.86,718.04c0.1,2.1-0.3,4.2-0.9,6.2c-0.7,2.5-0.4,5.2-1.3,7.7
			c-0.8,2.5-1.3,5-1.6,7.7c-0.4,3.4-1,6.8-1.6,10.2c3.3-0.2,6.9-0.3,10.1-0.5c0.6,0,1.2-0.2,1.8-0.4c1.5-0.3,1.6-0.5,1.1-1.9
			c-0.9-2.3-1.2-4.8-1.9-7.2c-0.6-2-0.7-4.2-1.4-6.3c-0.9-2.5-1.4-5.2-1.7-7.8c-0.3-2.9-0.9-5.8-2-8.8
			C641.96,717.34,641.76,717.74,641.86,718.04z M657.56,733.94c0.2-0.7-0.7-4.3-1.2-4.6C655.56,730.14,657.36,733.34,657.56,733.94z
			"/>
		<path d="M692.36,701.44c3.9,0.6,7.8,1.4,11.6,2.1c1.1,0.2,2.3,0.2,3.4,0.5c4.2,1.2,7.5,3.6,9.2,7.7c0.5,1.3,0.9,2.6,1.2,4
			c0.1,0.5,0.2,0.9,0.9,0.9s0.7,0.6,0.9,1.1c1.3,4,1.7,8.1,1.2,12.2c-0.3,2.1-0.6,4.2-0.4,6.4c0,0.3-0.1,0.6-0.2,0.9
			c-1.3,5.4-3.1,10.7-5.9,15.5c-0.3,0.4-0.6,0.7-0.6,1.1c-0.4,3.2-3.3,4.6-4.8,6.9c-0.2,0.3-0.5,0.4-0.9,0.3c-0.7-0.2,0-0.9-0.5-1.3
			c-0.8,1.2-1.4,2.3-2.3,3.3c-1.5,1.8-2.9,3.6-4.6,5.2c-1.7,1.5-3.3,2.8-5.2,3.9c-1.6,1-1.7,1.4-1.6,3.2c-1.7,0-3.4-0.2-5.2,0.4
			c-1.1,0.5-2.7,0.6-3.5-0.9c-0.6,0.2-0.7,0.7-1,1c-0.8,0.5-1.3,1.4-2.6,1c-1.4-0.5-2-1.3-1.9-2.6c0.2-3.2-0.2-6.3,0.1-9.5
			c0.3-3.4,0.3-6.9-0.1-10.3c-0.5-4.6-0.7-9.3-0.7-14c0.1-2.9-0.1-5.8-0.1-8.6c0-4.4-0.2-8.7,0.4-13c0.3-2.1-0.3-4.2-0.1-6.3
			c0.1-0.8,0-1.5,0.6-2.2c0.7-0.7,0.4-1.9,0.4-2.9c0.1-0.6,0-1.2,0-2.1c-0.7,0-1.4,0.1-2.2,0c-1.1-0.1-1.1-0.2-0.5-1.4
			c0.9-1.8,2.5-1.8,4.1-1.7c1,0.1,2,0.2,2.9-0.1c0.2-0.1,0.2-0.3,0.2-0.5c-0.4-1.5-0.3-1.6,1.2-1.2
			C687.96,700.94,690.16,701.04,692.36,701.44z M689.06,707.24c1.1,1.9,0.5,4.1,1.3,6c-0.1,5.3,0.1,10.5,0.4,15.8
			c0.2,4.2,0,8.5,0.5,12.7c0.4,3.4,0.1,7,1.1,10.4c0.1,0.1,0.1,0.2,0.1,0.3c-0.3,2.9,0.4,5.7,0.5,8.6c0,0.7,0,1.5,0.4,2.3
			c1.7-2,2.9-4.2,4.3-6.3c-0.8-0.2-1.2,0.6-2,0.4c0.1-0.4,0.4-0.6,0.6-0.8c1.1-1,2.5-1.7,3.3-3c3.6-6,6.6-12.3,8.9-18.9
			c0.3-1,0.6-2,0.6-3.1c0.1-2.5,0.3-4.9,0.3-7.3c0.1-1.2,0.2-2.4-0.1-3.6c-1.1-4-2.9-7.7-5.5-10.9c-0.3-0.4-0.6-0.6-1-0.9
			c-2.1-1.5-4.3-2.9-7.1-2.7c-0.2,0-0.3-0.1-0.5-0.2c-1.7-0.1-3.3-0.5-5-0.4C688.86,705.74,688.46,706.24,689.06,707.24z
			 M707.26,710.74c0.1,0.2,0.3,0.4,0.5,0.7c0.3-1,0.1-1.4-0.7-1.4C706.86,710.34,707.06,710.54,707.26,710.74z M719.46,726.54
			c0.5-2.5-0.3-4.9-0.9-7.2C718.16,721.84,719.36,724.14,719.46,726.54z"/>
		<path d="M761.36,705.44c-1,2.7-1.6,5.5-2.8,8.1c-0.1,0.3-0.2,0.5-0.2,0.8c-0.1,4.1-2.2,7.6-3.3,11.4c-0.9,3-1.6,5.9-2.9,8.7
			c-1,2.2-1,2.9-1,5.3c-0.1,2.5,0.5,5,0.4,7.5c0,6,0,12.1-0.1,18.2v1.3c0.2,2.1,0.3,4.3-0.9,6.2c-1.3-0.8-1.3-0.8-2.5,0.2
			c-1,1-1.1,1-2.2,0.3c-0.4-0.3-0.9-0.6-1.3-1c-0.5-0.4-0.8-1-1.6-0.7c-0.1,0-0.2,0-0.3-0.1c-0.5-0.2-0.5-1.3-1.4-0.9
			c-0.6,0.3-0.4,1.1-0.8,1.6c-0.1,0.1-0.2,0.2-0.4,0.3c-0.5-0.4-0.6-1.1-0.8-1.7c-1-5.6-0.5-11.1-0.2-16.7c0.3-3.3,0.2-6.5-0.3-9.7
			c-0.3-2.4-0.5-4.7-2.1-6.7c-1.1-1.3-1.3-3.2-1.7-4.8c-1.6-5.8-2.9-11.8-4.2-17.7c-0.8-3.2-1.4-6.5-2.9-9.5c-0.5-1.1,0.1-2,0.5-3
			c0.1-0.2,0.4-0.3,0.6-0.2c3.7,0.1,6.6,1.8,8.6,4.8c0.8,1.2,1.5,2.4,2.6,3.8c0.2-1.3,0-2.1-0.5-3c-0.3-0.6-0.3-0.6,0.4-1.7
			c0.8,0.6,1.5,1.3,1.6,2.4c0.1,0.9,0.4,1.6,1,2.3c0.7,1,1,2.1,1.2,3.2c0.8,3.8,2,7.6,2.9,11.4c0.4,1.5,1.2,3.4,2.1,5.6
			c3.1-9.6,6.6-20.4,11.1-29.5C761.66,702.83,761.86,703.94,761.36,705.44z M738.76,705.24c0.2,0.4,0.3,1.3-0.4,0.8
			c-0.4-0.1-0.7-0.5-0.7-0.9c-0.1-0.3,0.1-0.5,0.4-0.5C738.46,704.64,738.76,704.83,738.76,705.24z"/>
	</g>
</g>
<g>
</g>
<g>
</g>
<g>
</g>
<g>
</g>
<g>
</g>
<g>
</g>
</svg>
