<?xml version="1.0" encoding="utf-8"?>
<!-- Generator: Adobe Illustrator 28.0.0, SVG Export Plug-In . SVG Version: 6.00 Build 0)  -->
<svg version="1.1" id="Layer_1" xmlns="http://www.w3.org/2000/svg" xmlns:xlink="http://www.w3.org/1999/xlink" x="0px" y="0px"
	 viewBox="0 0 1280 800" style="enable-background:new 0 0 1280 800;" xml:space="preserve">
<style type="text/css">
	.st0{fill:#BB7AB4;stroke:#87509D;stroke-width:10;stroke-miterlimit:10;}
</style>
<path class="st0" d="M883.49,789.31H423.88c-38.71-2.37-67.43-27.97-65.09-55.73c2.14-25.4,29.81-46.81,65.09-48.85
	c153.2,0,306.41,0,459.61,0c38.79-1.08,71.28,22.52,72.1,51.15C956.42,765.34,923.43,790.4,883.49,789.31z"/>
<g>
	<path d="M389.46,755.43c-1.08,0.43-1.44-0.86-1.73-1.51C388.81,753.99,388.96,754.85,389.46,755.43z M407.25,711.72
		c1.58,0.43,2.74,1.3,3.24,3.02l1.3,4.1c0.43,1.15,0,2.23-0.14,3.31c-0.07,0.5-0.79,0.5-1.08,1.01c-0.29,0.72-0.79,1.37-1.15,2.09
		c-0.43-0.14-0.36-0.65-0.65-0.86c-0.5,0.14-0.22,0.79-0.65,1.01c-0.07,0.07-0.14,0.07-0.22-0.07c-1.15-1.51-1.8-3.17-1.44-5.11
		c0.22-1.01,0.07-1.94-0.22-2.95c-0.36-1.37-2.23-3.02-3.53-2.52c-0.72,0.22-1.44,0.58-2.16,0.86c-0.79,0.36-1.22,1.15-1.58,1.87
		c-0.36,0.72-0.65,2.02-1.08,2.67c-0.72,0.79-0.72,2.88,0.14,3.53c2.16,1.8,3.6,4.18,5.26,6.26c1.3,1.73,2.88,3.1,4.46,4.46
		c1.3,1.22,2.52,2.59,3.53,4.1c0.36,0.58,0.86,1.22,1.37,1.73c1.73,1.66,1.66,3.96,2.3,6.12c0.43,1.51,0.29,3.1,0.36,4.68
		c0,0.72-0.07,1.51-0.86,1.94c-0.43,0.22-0.36,0.58-0.43,0.94c-0.36,1.87-1.15,3.6-2.16,5.18c-0.43,0.65-1.01,1.22-1.8,1.3
		c-0.36,0.07-0.58,0.29-0.79,0.5c-0.72,0.94-1.8,1.51-2.81,2.02c-0.29,0.14-0.58,0.36-0.86,0.22c-0.86-0.36-1.58,0-2.3,0.36
		c-2.16,1.22-5.76,0.29-8.86-1.58c-0.29-0.22-4.54-4.25-4.68-4.46c-1.51-2.09,2.3,1.73,0.86-0.5c-0.29-0.5-0.65-1.37-0.58-2.02
		c0-0.86-0.72-1.3-1.08-1.94c-0.14-0.29-0.5-0.43-0.58-0.86c0.29-0.22,1.01-0.58,1.44-0.14c0.58,0.65,0.72,0.29,1.15,0.5
		c0.43,0.29,0.5,0.43,1.08,0.86c0.79,0.65,0.94,1.3,1.44,1.87c0.72,1.01,1.51,1.22,2.59,1.73c2.52,1.01,5.04,3.17,7.27,0.86
		c1.37-1.44,1.66-2.95,1.66-4.75c-0.07-1.87-0.43-3.6-0.86-5.33c-0.07-0.43-0.29-0.79-0.5-1.08c-2.74-3.82-4.97-7.06-8.42-10.08
		c-1.8-1.44-3.96-3.96-4.61-6.19c-0.29-1.15-1.01-2.16-1.15-3.31c-0.07-0.65-0.14-1.3,0.07-1.87c0.58-2.02,0.86-4.18,1.66-6.12
		c1.08-2.81,3.02-4.83,5.47-6.48c0.72-0.5,1.51-0.65,2.45-0.5c1.3,0.22,2.52-0.29,3.82-0.43
		C404.37,711.51,405.81,711.43,407.25,711.72z M399.54,737.5c0.22-0.07-0.58-1.58-1.08-2.16c-0.72-1.01-1.51-1.3-1.66-1.8
		c-1.01-0.65-1.8-1.58-2.95-1.87C395.15,733.83,397.74,736.06,399.54,737.5z"/>
	<path d="M429.21,713.45c0.07,0.07,0.36,0.07,0.5,0c3.02-0.5,6.12-0.43,9.14-0.94c0.79-0.07,1.58-0.29,2.38-0.29
		c1.44-0.07,3.02,1.01,3.74,2.52c-1.66,0.43-3.31,0.79-4.97,0.79c-1.66-0.07-3.24-0.14-4.9-0.07c-1.51,0.07-3.02,0.5-4.54,0.58
		c-0.43,0-0.65,0.29-0.79,0.72c-0.5,2.09-0.07,4.1,0.22,6.19c0.07,0.72,0,1.44,0,2.23c-0.14,3.1-0.29,6.19,0,9.36
		c2.38-0.36,4.68,0.29,6.98-0.07c1.15-0.22,1.8,0.79,2.74,1.44c-0.58,0.5-1.01,0.79-1.58,0.86c-0.72,0.07-1.37,0.22-2.09,0.5
		c-1.66,0.58-3.38,0.65-5.18,0.72c-0.94,0.07-0.94,0.07-0.86,1.01c0.07,1.73,0.07,3.46,0,5.26c-0.07,1.87-0.36,3.82-0.22,5.76
		c0.07,0.65-0.07,1.37-0.22,2.02c-0.43,1.73-0.58,3.53-0.36,5.33c0.14,0.72,0.43,0.94,1.08,0.86c0.5,0,1.01-0.22,1.58-0.07
		c0.14,0.07,0.36,0.14,0.36,0.5c-0.79,0.72-2.23-0.07-3.1,1.01c0.58,0.29,1.01,0.07,1.44-0.07c2.52-0.65,5.04-1.01,7.56-1.73
		c1.3-0.36,2.66-0.14,3.96-0.43c0.36-0.07,0.72,0.07,1.01,0.29c0.43,0.43,0.86,0.79,1.3,1.15c-0.43,0.58-1.22,0.29-1.73,0.65
		c-0.14,0.43,0.29,0.65,0.43,1.01c0.36,0.5,0.22,0.94-0.43,0.94c-1.15-0.07-2.16,0.43-3.24,0.72c-0.79,0.14-1.58,0.36-2.38,0.36
		c-2.23,0-4.39,0-6.55,0.43c-0.58,0.14-1.08,0.14-1.22,1.01c-0.07,0.58-0.5,0.65-1.01,0.22c-0.58-0.43-1.08-0.22-1.66-0.14
		c-2.81,0.43-5.54,0.65-8.42,0.58c-0.43,0-0.79-0.36-1.22-0.5c-0.36-0.14-0.43-0.43-0.43-0.72c0-0.43,0.22-0.58,0.58-0.65
		c1.15-0.36,2.3-0.5,3.6-1.15c0-1.66-0.07-3.31,0-5.04c0.43-5.33,0.14-10.37,0.58-15.7c0.36-5.18,0.5-10.44,0.65-15.62
		c0.07-2.59-0.14-5.18-0.14-7.71c0-0.65-0.29-0.94-0.86-0.94c-0.94,0-0.79-0.5-1.73-0.65c-0.43-0.07-0.79-0.22-1.01-0.72
		c1.51-0.5,2.02-0.5,3.46-0.79c0.07-0.43,0.14-0.79,0.14-1.15c0-0.72,0.07-1.3,1.01-1.15c0.07,0,0.22,0,0.22-0.07
		c1.3-1.22,2.52-0.5,3.82-0.07C427.77,712.37,428.63,712.59,429.21,713.45z M421.57,761.48c1.15-0.14,1.15-0.14,1.01-0.94
		c-0.07-0.5,0.07-1.73-0.36-2.23C421.43,759.03,421.72,760.61,421.57,761.48z"/>
	<path d="M459.52,711.58c0.43-0.14,1.08,1.8,1.22,2.45c0-1.8,0.29-3.1,1.3-0.36c0.5,1.3,1.15,2.59,1.51,3.96
		c0.36,1.58,1.01,3.1,1.22,4.68c0.14,1.22,0.29,0.86,0.86,1.94c1.01,1.8,0.94,3.89,1.44,5.83c0.86,3.24,2.02,6.34,3.24,9.43
		c0.94,2.3,1.3,4.82,1.8,7.34c0.14,0.65,0,1.37,0.14,2.09c0.72,2.66,1.58,5.33,2.66,7.92c0.65,1.51,1.22,3.24,1.08,5.11
		c-0.07,0.86-0.14,1.8-1.37,1.94c0,0.07,0.14,0.72-0.65,0.79c-0.36-0.36-0.86-0.43-1.22-1.15c-0.14-0.29-0.65-0.14-0.72-0.5
		c-0.29-0.79-1.3-1.01-1.44-0.36c-0.29,1.3-1.66,0.5-2.52,0.72c-0.58,0.22-0.94,0-1.08-0.58c-0.79-2.38-1.58-4.68-2.16-6.98
		c-0.5-1.94-1.51-3.74-1.87-5.76c-0.14-0.72-0.65-0.94-1.3-0.94c-2.81,0.14-4.97-0.07-7.85,0.29c-0.65,0.07-1.87-0.22-2.3,0.29
		c-0.43,0.43-0.36,1.22-0.58,1.87c-0.29,1.37-0.72,2.59-0.86,3.96l-0.58,4.97c-0.07,0.58-0.14,1.22-0.29,1.8
		c-0.14,0.86-0.5,1.08-1.58,0.79c-0.29-0.07-0.79-1.66-1.08-0.5c-0.14,0.65-0.72-1.15-0.65-1.87c0.36-3.24,0.86-6.34,1.73-9.43
		l0.22-1.08c0.14-1.01,0.14-0.94-0.79-1.22c-0.5-0.14-1.08-0.22-1.37-0.79c0.29-0.65,0.94-0.5,1.44-0.58
		c1.66-0.43,1.44-0.07,1.66-1.73c0.36-2.45,1.3-5.54,1.58-7.99c0.43-3.6,1.01-6.41,1.87-9.94c0.65-2.67,0.86-3.67,1.22-6.34
		c0.36-2.16,0.72-4.32,1.01-6.41c0.07-0.5,0.14-1.08-0.07-1.58c-0.14-0.5-0.22-1.22,0.5-1.51s1.44-1.15,2.3-0.65
		C458.01,711.87,458.8,711.72,459.52,711.58z M455.92,723.67c0.07,1.51-0.22,3.02-0.65,4.46c-0.5,1.8-0.29,3.74-0.94,5.54
		c-0.58,1.8-0.94,3.6-1.15,5.54c-0.29,2.45-0.72,4.9-1.15,7.34c2.38-0.14,4.97-0.22,7.27-0.36c0.43,0,0.86-0.14,1.3-0.29
		c1.08-0.22,1.15-0.36,0.79-1.37c-0.65-1.66-0.86-3.46-1.37-5.18c-0.43-1.44-0.5-3.02-1.01-4.54c-0.65-1.8-1.01-3.74-1.22-5.62
		c-0.22-2.09-0.65-4.18-1.44-6.34C455.99,723.17,455.85,723.46,455.92,723.67z M467.22,735.12c0.14-0.5-0.5-3.1-0.86-3.31
		C465.78,732.39,467.08,734.69,467.22,735.12z"/>
	<path d="M491.13,713.09c2.09,0.14,4.25,0.14,6.05,1.37c1.01,0.79,2.16,1.3,3.31,1.73c0.94,0.43,1.58,1.15,1.94,2.16
		c0.86,2.16,1.73,4.32,1.51,6.77c-0.07,0.79,0.36,1.44,0.36,2.23c0.07,3.1-1.37,5.4-3.53,7.42c-1.01,0.94-2.3,1.51-3.46,2.3
		c-0.36,0.29-0.65,0.58-1.22,0.72c0.07-0.65,0.79-0.79,0.79-1.44c-0.94,0.22-1.51,0.86-2.16,1.44c-0.29,0.29,0.07,0.72,0.36,0.94
		c1.01,0.86,1.94,1.87,2.88,2.81c1.51,1.44,2.38,3.24,3.1,5.11c1.15,3.02,2.38,6.05,3.74,8.93c0.22,0.5,0.43,1.01,0.5,1.58
		c0.29,1.08,0.72,2.23,1.22,3.24c0.36,0.58,0.22,1.08,0.14,1.66c-0.07,0.65-0.22,1.01-0.94,1.08c-0.07,0-0.22,0.22-0.29,0.36
		c-0.29,0.43-0.65,0.5-1.01,0.14c-0.72-0.65-1.37-1.01-2.23-0.36c-0.14,0.14-0.58,0.14-0.79,0c-1.15-0.72-2.52-1.3-3.17-2.59
		c-0.29-0.65-0.65-1.22-1.01-1.8c-2.3-4.75-4.32-9.58-6.26-14.47c-0.29-0.72-0.58-1.37-1.01-2.09c-0.94,0.5-1.58,1.15-1.37,2.3v0.58
		c-0.58,2.66,0,5.33,0,8.06c0.07,2.52,0.29,5.11-0.07,7.63c-0.14,0.65,0.14,1.51-1.08,1.37c-0.22-0.07-0.36,0.22-0.36,0.43
		c-0.14,0.36-0.22,0.72-0.29,1.08c-1.08-0.43-1.8-1.3-2.74-2.09c-0.86,0.86-1.87,1.08-2.88,0.43c-1.15-0.65-1.73-1.58-1.8-2.95
		c-0.07-1.15,0.29-2.23,0.22-3.38c-0.14-3.24-0.14-6.55-0.29-9.79c0-0.65-0.14-1.22-0.22-1.87c-0.72-3.67-0.79-7.42-0.58-11.16
		c0.22-3.82,0.22-7.56,0.36-11.38c0.07-1.8,0.29-3.53,0.14-5.4c0-0.36,0.07-0.72-0.14-1.08c-0.79,0-1.51,0.5-2.3,0.43
		c-0.22-0.36,0.43-0.58,0.07-0.86c-0.58-0.58-0.22-0.86,0.36-1.08c2.59-0.86,5.26-1.3,8.06-0.94
		C487.09,712.95,489.11,712.95,491.13,713.09z M487.96,737.14c0.43-0.22,0.58-0.29,0.65-0.36c2.38-2.38,4.82-4.61,6.77-7.34
		c1.3-1.87,1.73-4.03,2.09-6.19c0-0.36-0.07-0.65-0.22-0.94c-0.29-0.58-0.43-1.15-0.36-1.8c0.07-0.5-0.14-0.86-0.65-1.08
		c-0.36-0.14-0.65-0.43-1.01-0.65c-1.3-1.01-2.52-2.16-4.32-2.67c-1.08-0.29-2.02-0.22-3.17-0.22
		C488.25,722.96,488.17,729.94,487.96,737.14z"/>
	<path d="M534.26,713.23c1.44,0.86,2.16,2.38,2.23,3.96c0.14,2.95,0.43,12.75-1.37,10.37c-1.01-1.3-0.36,0.79-0.86,1.3
		c-0.36,0.36-0.29,0.86-0.58,1.22c-1.87-1.8-1.8-4.32-2.23-6.55c-0.36-1.87-0.58-3.74-0.72-5.62c-0.22-2.66-3.46-4.32-6.05-3.1
		c0.5,0.07,0.79,0.14,1.08,0.14c0.14,0.14,0.14,0.29,0,0.36c-1.15,0.79-1.73,1.8-2.16,3.17c-0.5,1.58-1.3,3.1-1.51,4.75
		c-0.29,2.23-1.22,4.32-1.58,6.55c-0.29,1.3-0.58,2.59-0.72,3.96c-0.36,2.88,0,7.63-0.14,9.58c-0.07,0.43-0.22,0.86-0.14,1.3
		c0.29,1.15,0.14,2.3,0.07,3.46c-0.07,0.86,0.86,1.66,0.94,2.45c0.22,2.09,0.58,4.1,1.66,5.98c0.79,1.37,1.87,2.09,3.46,1.87
		l2.95-0.22c0.5,0,0.86-0.29,1.3-0.58c1.94-1.15,2.52-1.37,4.18-2.88c0.22-0.14,1.01-0.5,1.94-1.37c0.86-0.86,1.73-1.44,2.59-2.38
		c0.5-0.5,1.37-0.94,1.8-1.01c0.36,0.58-0.86,1.66-0.29,2.09c0,0.14-0.07,0.29-0.07,0.36c-0.5,0.72-1.37,0.94-1.73,1.51
		c-0.5,0.86-0.58,1.3-1.08,1.87c-0.43,0.43-0.94,0.79-1.44,1.22c-0.22,0.22-0.43,0.58-0.72,0.94c-1.51,1.66-2.02,2.38-3.46,3.1
		c-1.3,0.65-2.52,1.44-3.74,2.3c-1.22,0.79-2.66,1.15-4.03,1.66c-1.3,0.43-1.8-0.22-2.95,0.29c-0.22,0.07-0.5-0.14-0.72-0.22
		c-0.36-0.14-0.72-0.29-1.01,0c-0.07,0.14-0.29,0.22-0.36,0.22c-1.37-0.5-2.3-0.72-3.6-1.22c-1.01-0.43-2.66-2.74-3.1-3.82
		c-1.01-2.23-1.8-4.03-2.02-6.48c-0.07-1.87,0.14-2.88-0.5-4.75c-0.29-0.72,0-1.58-0.36-2.38c-0.36-0.58-0.36-1.3-0.14-1.94
		c0.22-0.79,0.22-1.58,0.22-2.38c0.14-3.31,0-6.7,0.58-9.94c0.29-1.66,0.07-3.24,0.43-4.9c0.86-4.61,2.74-8.78,5.26-12.67
		c0.07-0.07,0.14-0.14,0.29-0.22c0.07,0.07,0.22,0.07,0.29,0.14c0.5,0.5,0.86,0.43,1.15-0.14c0.65-1.08,1.51-1.87,2.52-2.59
		c0.22-0.14,0.36-0.43,0.72-0.29c1.51,0.5,3.02-0.07,4.46-0.29C528.35,710.79,531.38,711.58,534.26,713.23z M511.79,731.74
		c-0.22,0.29-0.14,2.52-0.14,2.74c-0.29,0.58,1.08,1.94,0.79,0.58c-0.22-1.08,1.08-7.99,0.14-7.99
		C512.51,727.06,511.79,731.6,511.79,731.74z"/>
	<path d="M546.21,713.16c0.14,0.22,0.22,0.22,0.43,0.22c1.08-0.22,1.8,0.58,2.59,1.01c0.58,0.29,0.94,0.94,1.01,1.66
		c0.07,1.51,0.07,2.95,0,4.39v0.43c0.22,2.59-0.07,5.26,0.36,7.92c0.58,3.17,0.94,6.48,1.01,9.79c0,0.22,0,0.5,0.29,0.86
		c1.58-0.22,3.24-0.5,4.9-0.79c0.07,0,0.14,0,0.14-0.07c0.86-1.15,2.16-0.65,3.31-0.86h0.58c1.37-0.14,1.22-0.22,1.58-1.51
		c0.43-1.58-0.14-3.1,0-4.68c0.5-4.97,0.07-9.94,0.22-14.98c0-0.58-0.14-1.22-0.22-1.87c-0.07-0.43,0-0.94,0.36-1.08
		c0.65-0.22,0.79-0.86,1.51-0.86c0.58,0.07,0.72,0.58,0.79,1.01c0.29,1.08,0.36,2.3,0.43,3.46c0,0.5,0,1.01,0.07,1.44
		c0.14,1.66,0.36,3.31,0.36,4.97c0.07,1.73,0,3.31,0.22,5.04c0,0.14,0.14,0.29,0.5,0.36c0.14-4.03-0.22-11.67-0.22-12.53
		c0-1.66,1.3,1.94,1.3,3.17c0.14,2.67,0.22,5.26,0.5,7.85c0,0.58-0.14,2.38-0.07,2.95c0.07,2.52-0.07,5.04,0.22,7.56
		c0.14,1.66,0.22,3.24-0.07,4.9c-0.07,0.43,0.22,0.86,0.29,1.3c0.29,1.94,0.5,3.96,0.29,5.9v0.79c0.43,1.51,0.36,3.1,0.43,4.68
		c0.07,0.86-0.14,1.8-0.07,2.74c0,0.58-0.36,1.15-0.86,1.58c-0.43,0.43-0.72,0.94-0.86,1.51c-0.14,0.36,0.72,0.43,0.22,0.79
		c-0.58,0.5-1.08,1.08-1.8,1.3c-0.5,0.14-0.94,0.36-1.44,0.65c-1.08-0.58-1.37-1.51-1.22-2.66c0.07-0.22,0.14-0.5,0.07-0.65
		c-0.43-2.02-0.29-4.1-0.29-6.12c0.07-1.22-0.29-2.45-0.22-3.67c0-1.3-0.07-2.52-0.22-3.82c-0.07-0.65-0.22-1.44,0.43-2.02
		c0.07-0.07,0.07-0.36,0.07-0.36c-0.86-0.65-0.43-1.51-0.5-2.23c-0.07-0.36-0.22-0.58-0.58-0.58c-0.65,0-1.3,0-1.94,0.07
		c-2.38,0.07-4.82-0.07-7.27,0.29c-0.22,0-0.43,0.07-0.65,0.14c-0.29,0.65-0.07,1.22,0,1.87c0,0.79,0.29,1.51,0,2.38
		c-0.07,0.22,0,0.43,0.07,0.65c0.22,0.79,0.14,1.44,0,2.38c-0.29,1.66-0.29,2.66-0.29,4.03c0,1.08,0.14,1.8,0.07,2.88
		c-0.07,0.58-0.22,1.66-0.07,2.09c0.36,0.86,0,1.73,0.14,2.59c0.07,0.43-0.22,0.65-0.65,0.65c-1.44,0.14-3.89,1.08-4.32-0.07
		c-0.07-0.22-0.43-0.14-0.65,0.5c-0.36,1.01-1.94,0.58-3.02,0.65c-0.29-0.43-0.43-0.94-0.43-1.44c0-2.02-0.22-3.96-0.29-5.9
		c-0.07-1.44,0.07-2.88,0.07-4.25c-0.14-2.23,0-5.11,0-7.42c0-0.72-0.14-0.72-0.86-0.94c-0.79-0.29-1.73-0.14-2.23-1.01
		c0.58-0.36,1.3-0.5,1.87-0.65c0.94-0.29,1.15-0.65,1.08-1.58c-0.29-3.24-0.36-6.19-0.29-9.43c0-4.68,0.07-9.36,0-14.11
		c0-0.5,0.07-1.01-0.14-1.44c-0.29-0.65-0.14-1.3,0.07-1.94c0.22-0.43,0.36-0.58,0.72-0.65C544.19,712.3,545.34,712.3,546.21,713.16
		z"/>
	<path d="M583.07,714.1c1.22,1.37,1.8,2.95,1.94,4.75c0.14,3.17,0.14,7.06,0.43,10.44c0.22,2.45,0.22,4.9,0.5,7.34
		c0.14,0.94,0.14,1.8,0.43,2.66c0.5,2.09,0.29,4.1,0,6.12c-0.43,2.88-0.36,5.76-0.5,8.57c-0.07,1.3,0.07,2.59-0.58,3.82
		c-0.22,0.5-0.07,1.01,0.07,1.44c0.07,0.43,0.36,0.86-0.22,1.22c-0.22,0.14-0.07,0.43,0.07,0.58c0.36,0.43,0.14,0.79-0.07,1.22
		c-0.58,0.94-0.58,0.94-1.44,0.36c-0.58-0.36-1.22-0.43-1.51,0c-1.58,2.45-2.16,0.22-3.96,0.43c-0.43,0.07-0.79-0.29-0.94-0.72
		c-0.22-0.86-0.58-1.58-0.5-2.52c0-1.94,0.07-3.89,0.07-5.76c0-2.09-0.43-4.03-0.58-6.05c-0.43-4.9-0.14-9.72-0.43-14.55
		c-0.14-2.52,0.07-5.11,0-7.56c-0.14-2.95,0.07-6.7,0.14-9.65c0.07-1.08,0.07-1.08,1.22-1.08c0.22-0.07,0.36-0.07,0.5-0.07
		c0.22-0.5-0.14-0.94,0-1.44c0.22-0.36,0.72-0.14,1.01-0.5c0.14-0.14,0.43-0.29,0.58-0.22C580.62,713.16,582.06,713.02,583.07,714.1
		z M583.65,737.28v1.66c0,0.29,0.43,1.22,0.5,1.58l0.14,1.58c0.07-0.29,0.07-0.07,0.29-0.86s0.07-1.58,0.07-2.02
		c0-0.43-0.22-1.44-0.29-1.94l-0.36-3.02C583.86,734.69,583.65,736.35,583.65,737.28z"/>
	<path d="M603.52,712.95c0.22,1.01,1.08,1.58,1.44,2.59c0.94,2.81,1.08,5.76,2.16,8.57c1.58,4.32,2.74,8.86,4.32,13.18
		c0.58,1.66,0.94,3.38,1.44,5.04c0.79,2.81,1.66,5.62,2.45,8.42c0.07,0.14,0.14,0.36,0.36,0.36c0.36-3.53,0.36-7.13-0.36-10.73
		c-0.36,0.5-0.07,1.01-0.14,1.51c-0.07,0.5,0.07,1.08-0.07,1.58c-0.5-0.14-0.43-0.5-0.43-0.79c0-1.8-0.07-3.67-0.22-5.54
		c0-1.08,0.22-2.23,0.22-3.38c0-1.44-0.14-2.81-0.22-4.18c-0.14-1.44-0.22-2.88-0.14-4.32c0.14-3.46,0.22-6.84,0.07-10.3
		c0-0.65,0.43-1.08,0.72-1.51c0.14-0.22,0.5-0.22,0.72-0.22c0.65,0.07,2.02,1.22,2.09,1.87c0.07,2.16,0.65,4.32,0.5,6.55
		c-0.14,2.23,0,4.46-0.07,6.77c0,1.73,0.22,3.46,0.07,5.26c-0.14,3.17,0.07,6.34,0,9.58c0,1.94,0.5,3.96,0.65,5.98
		c0.14,2.52,0.72,4.97,0.86,7.49c0,0.72,0.22,1.66-0.22,1.94c-0.94,0.65-0.36,1.3-0.36,1.94c0,0.36,0.07,0.65,0.07,1.01
		c0.07,0.94-0.5,1.8-1.3,2.09c-0.36,0.22-0.65,0-0.79-0.29c-0.43-0.58-0.94-0.5-1.51-0.58c-1.37-0.22-2.74,0.22-3.96-0.5
		c-0.86,0.43-1.51-0.36-2.3-0.43c-0.94-0.07-1.3-0.65-1.51-1.44c-0.5-1.8-1.08-3.53-1.51-5.33c-0.65-2.81-1.66-5.4-2.3-8.21
		c-0.79-3.82-2.09-7.49-3.24-11.23c-0.94-2.95-1.8-5.83-2.38-8.86c-0.29-1.8-0.79-3.6-1.15-5.4c-0.5,0.14-0.36,0.43-0.36,0.58
		c-0.14,5.98-0.29,11.88-0.29,17.86c0,4.25,0.43,8.5,0.5,12.82c0.07,2.38,0.5,4.75,0.65,7.13c0.14,1.3,0.07,2.66,0.07,4.18
		c-1.01-0.43-1.58-1.22-2.59-1.44c-0.36-0.07-0.58-0.58-0.5-1.01c0-0.65-0.22-1.22-0.5-1.8c-0.29-0.43-0.36-1.01-0.36-1.58
		c-0.29-3.38-0.29-6.77-0.43-10.22c-0.07-0.94,0-1.94-0.29-2.95c-0.07-0.22,0-0.5,0-0.79c0.29-4.1-0.22-8.28-0.14-12.39
		c0.07-4.68,0.07-9.29,0.07-13.97c0-0.94-0.07-1.94-0.14-2.95c0-0.58,0-0.86,0.79-1.08c1.01-0.22,1.94-0.5,2.95-0.07
		c0.36,0.14,0.86-0.07,1.15-0.22c1.66-0.79,3.38-0.58,5.04-0.79C603.23,712.73,603.52,712.8,603.52,712.95z M616.48,760.83
		c-0.29-0.58-0.36-1.22-1.22-1.15C615.18,760.97,615.18,760.97,616.48,760.83z"/>
	<path d="M640.16,712.3c1.3,0.07,2.38,0.14,3.38-0.22c0.72-0.22,1.37-0.14,2.09-0.07c1.08,0.14,2.02,0.5,2.81,1.08
		c1.15,0.72,1.87,1.94,1.94,3.31c0.14,1.37,0,2.74-0.22,4.1l-0.22,2.23c-0.07,0.36-0.07,0.72-0.29,0.86
		c-0.94,0.58-0.72,1.58-1.15,2.45c-0.43,0-0.86-0.22-1.3,0c-1.15,0.43-2.16-0.14-2.59-1.37c-0.22-0.5-0.22-1.08-0.22-1.58
		c-0.14-1.66-0.22-3.31-0.29-5.04c-0.07-0.86-0.36-1.73-0.5-2.59c-0.07-0.58-0.43-0.94-0.94-1.08c-2.16-0.72-4.32,0.07-5.33,2.09
		c-0.72,1.51-1.58,2.95-2.02,4.54c-0.65,2.45-1.3,4.9-1.01,7.49c0.22,1.87,0,3.74,0.07,5.54c0,1.51,0.14,2.95,0.07,4.46
		c-0.22,4.46,1.01,8.93,1.01,13.46c0,0.22,0.07,0.43,0.07,0.65c-0.72,2.23,0.36,4.03,1.3,5.9c0.58,1.15,0.86,1.22,2.02,0.65
		c1.8-0.94,3.02-2.23,5.04-2.88c0.43-0.14,0.65-0.43,0.65-0.94c-0.14-4.32,0.36-8.71,0.29-13.03c0-0.07,0-0.22-0.07-0.36
		c-1.51-0.43-2.88-1.08-4.54-0.86c-0.72,0.07-0.79-0.72-1.01-1.15c0.14-0.36,0.43-0.43,0.72-0.43c1.94,0,3.82-0.72,5.69-0.94h0.29
		c0.79-1.01,1.08-0.29,1.44,0.43c0.07,0.07,0.29,0.07,0.43,0.14c0.43-0.65,0.14-1.44,0.65-2.09c0.65,0.07,1.15,0.58,1.87,0.58
		c0.43,0,0.43,0.43,0.43,0.79c0.14,1.37,0.43,2.74,0.43,4.1c0.07,1.51,0,2.95,0.14,4.46c0.29,3.02,0.07,6.12,0.22,9.15
		c0.14,1.58,0.07,3.17,0.22,4.75c0.07,1.51-0.5,2.95-1.94,3.82c-0.22,0.14-0.22,0.5-0.58,0.58c-1.37-1.44-2.23-3.31-3.67-4.68
		c-0.58-0.5-0.5-1.37-0.79-2.02c-0.5,0-0.72,0.36-0.94,0.65c-1.01,1.22-1.94,2.45-3.53,2.81c-0.72,1.01-1.51,0.86-2.45,1.22
		c-1.08,0.43-2.3,0.36-3.46,0.22c-1.01-0.07-1.94-0.22-2.95-0.36c-1.44-0.22-3.38-0.86-3.96-2.74c-0.36-1.22-0.72-2.88-1.22-4.03
		c-0.58-1.3-0.58-2.66-0.58-4.03c0-2.81-0.5-5.04-0.65-7.78c-0.07-1.87,0.29-3.67,0.43-5.47c0-0.79,0.14-1.58,0.07-2.3
		c-0.22-1.8,0.36-3.6,0.22-5.4c-0.22-2.52,0.72-4.82,1.22-7.27c0.14-0.36,0.29-0.65,0.36-1.01c0.43-3.17,2.23-5.54,4.39-7.71
		c0.65-0.72,1.58-1.3,2.38-1.94c0.14-0.07,0.29-0.14,0.36-0.14c2.09,0,3.6-1.51,5.33-2.23c0.94-0.29,1.87-0.07,2.95-0.22
		C642.18,711.94,641.03,711.58,640.16,712.3z M627.2,729.36c-0.14,1.73-0.29,3.53-0.36,5.33c0,0.22,0.07,0.43,0.5,0.43
		c0-2.16,0.22-4.32,0.65-6.41c0-0.07-0.14-0.22-0.22-0.36C627.35,728.57,627.2,728.93,627.2,729.36z"/>
	<path d="M679.11,713.31c1.51,0.07,2.23-0.07,3.6-0.22c2.09-0.22,4.25-0.07,6.34-0.43c2.38-0.43,4.83-0.14,7.2-0.43
		c0.29-0.07,0.58,0,0.72,0.14c0.29,0.29-0.14,0.58-0.43,0.72c-0.94,0.58-1.22,1.22-1.58,2.23c-0.29,0.58-1.01,0.86-1.73,1.01
		c-1.58,0.29-3.24,0.22-4.9,0.22c-1.8,0-3.1,0.14-4.82,0.22c-1.3,0.07-3.1,0.36-3.38,0.5c0.29,1.37,0.14,2.38,0.29,3.74
		c0.29,3.38,0.07,7.13,0.5,10.44c0.07,0.79,0.36,1.01,1.37,0.86c1.8-0.22,3.1-0.07,4.9-0.14c2.02-0.07,2.74-0.29,3.31,0.36
		c-0.58,0.58-1.8,1.08-2.38,1.3c-0.86,0.36-1.66,0.58-1.15,0.79c0.72,0.29,0.79,0.72-0.14,1.01c-1.22,0.36-1.94,0.36-2.59,0.36
		c-0.58,0-1.44,0.29-2.23,0.43c-0.29,0.07-0.79,0.07-0.79,0.22c0,2.66,0.22,6.91,0.65,9.58c0.22,1.44-0.07,2.88,0.07,4.39
		c0.22,1.94,0.07,3.96,0.58,5.83c0.22,0.65,0.22,1.37,0.07,2.02c-0.14,0.72-0.14,1.37-0.14,2.02c0.07,1.15-0.22,2.3-0.29,3.46
		c-0.07,0.94-0.79,0.58-1.3,0.86c-0.43,0.79-0.79,0.5-1.15-0.36c0.29-0.43,0.07-4.39-0.5-4.39c-0.43,0,0.07,2.16-0.36,3.1
		c-0.43,0.94-3.02,0.43-3.89,0.07c-1.01-0.43-1.22-0.65-1.22-2.67c0-2.16-0.07-4.39,0-6.62c0.07-2.45-0.14-4.82-0.22-7.27
		c-0.14-2.81,0.36-6.48,0.22-9.29c-0.07-1.22-1.3-0.94-1.58-1.22c-0.43-0.29-0.22-1.3-0.72-1.66c-0.5-0.36-0.07-0.72,0.5-1.01
		c0.36-0.14,1.3-0.29,1.58-0.5c0-3.31,0-5.98-0.07-9.29c-0.07-3.46-0.5-6.55-0.58-9.94c0-0.65,0.14-1.08,0.72-1.3
		c0.43-0.22,0.94-0.36,1.15,0.36c0.14,0.43,0.29,0.29,0.79,0.5c-0.22-1.51,0.65-1.3,1.51-1.73
		C677.53,712.15,678.97,712.51,679.11,713.31z M688.91,734.19c-0.36,0.14-0.94,0.36-0.79,0.79c0.07,0.43,0.72,0.07,1.08,0
		c0.29-0.14,0.36-0.22,0.65-0.72C689.48,734.12,689.2,734.19,688.91,734.19z"/>
	<path d="M710.22,711.07c0.36,0.58-0.5,0.58-0.65,1.15c1.8-0.29,3.46-0.36,5.04,0.22c2.52,1.08,4.61,2.52,5.62,5.26
		c0.29,0.72,0.79,1.44,1.22,2.09c1.51,2.52,2.38,5.26,2.52,8.14c0.07,2.52,0.22,5.04,0.14,7.56c-0.07,2.66-0.07,5.4-0.29,8.14
		c-0.07,1.8-0.58,3.6-1.08,5.33c-0.65,2.3-1.66,4.46-2.16,6.84c-0.36,1.94-1.15,3.82-2.52,5.4c-0.43,0.5-1.01,0.72-1.51,1.08
		c-0.94,0.86-2.09,1.51-3.46,1.51c-0.5-0.07-1.08,0.14-1.37,0.43c-0.58,0.58-1.08,0.36-1.58,0.07c-0.43-0.29-0.86-0.58-0.65-1.3
		c0.07-0.36-0.22-0.65-0.5-1.08c-0.36,0.58-0.94,0.65-1.51,0.65c-0.5,0-1.08,0-1.58,0.07c-1.44,0.29-2.45-0.36-3.31-1.3
		c-0.36-0.36-0.72-0.79-1.01-1.3c-0.58-0.86-0.94-1.94-2.38-2.02c0.5-0.5,0.72-0.79,0.22-1.22c-2.09-1.66-2.52-4.03-2.74-6.55
		c-0.29-3.46-0.5-6.98-0.72-10.44c-0.07-1.08-0.07-2.09,0-3.1l0.36-7.42c0.29-3.67,1.01-7.27,2.45-10.66
		c0.79-1.94,2.02-3.6,3.6-4.97c0.72-0.58,1.73-1.01,2.59-1.51c0.72-0.5,1.37-1.15,2.3-0.86c0.22,0.07,0.5-0.14,0.79-0.29
		c0.22-0.07,0.43-0.22,0.72-0.29C709.35,710.57,709.93,710.57,710.22,711.07z M707.48,715.83c-0.94,0.94-1.8,2.09-2.16,3.31
		c-0.58,1.58-0.94,3.31-0.79,5.04c0.14,0.86,0.36,1.66,0.29,2.52c-0.14,2.38-0.07,4.75-0.22,7.13c-0.22,2.74,0,5.47,0.07,8.21
		c0.14,2.74,0.36,5.47,0.58,8.14c0.14,1.44,0.14,2.88,1.08,4.1c0.5,0.72,1.22,2.02,1.94,2.88c-1.37-0.07-1.8-1.66-2.74-2.02
		c0.29,0.5,0.5,1.08,0.72,1.58c0.22,0.36,0.36,0.72,0.65,1.01c0.22,0.29,0.43,0.79,0.86,0.72c0.86-0.07,1.22,0.5,1.58,1.08
		c0.22,0.36,0.5,0.79,1.01,0.72c1.15,0,2.66-1.37,2.74-2.52c0.14-1.87,0.65-3.74,0.94-5.54c0.43-2.59,0.94-5.04,1.08-7.63
		c0.14-2.88,0.29-5.76,0.58-8.64c0.29-3.82,1.01-7.7,0.43-11.59c-0.36-2.45-0.72-4.97-1.73-7.27c-0.36-1.01-1.15-1.66-2.16-1.87
		c-0.72-0.14-1.51-0.29-2.23-0.22C709.07,714.96,708.13,715.18,707.48,715.83z"/>
	<path d="M741.76,713.09c2.09,0.14,4.25,0.14,6.05,1.37c1.01,0.79,2.16,1.3,3.31,1.73c0.94,0.43,1.58,1.15,1.94,2.16
		c0.86,2.16,1.73,4.32,1.51,6.77c-0.07,0.79,0.36,1.44,0.36,2.23c0.07,3.1-1.37,5.4-3.53,7.42c-1.01,0.94-2.3,1.51-3.46,2.3
		c-0.36,0.29-0.65,0.58-1.22,0.72c0.07-0.65,0.79-0.79,0.79-1.44c-0.94,0.22-1.51,0.86-2.16,1.44c-0.29,0.29,0.07,0.72,0.36,0.94
		c1.01,0.86,1.94,1.87,2.88,2.81c1.51,1.44,2.38,3.24,3.1,5.11c1.15,3.02,2.38,6.05,3.74,8.93c0.22,0.5,0.43,1.01,0.5,1.58
		c0.29,1.08,0.72,2.23,1.22,3.24c0.36,0.58,0.22,1.08,0.14,1.66c-0.07,0.65-0.22,1.01-0.94,1.08c-0.07,0-0.22,0.22-0.29,0.36
		c-0.29,0.43-0.65,0.5-1.01,0.14c-0.72-0.65-1.37-1.01-2.23-0.36c-0.14,0.14-0.58,0.14-0.79,0c-1.15-0.72-2.52-1.3-3.17-2.59
		c-0.29-0.65-0.65-1.22-1.01-1.8c-2.3-4.75-4.32-9.58-6.26-14.47c-0.29-0.72-0.58-1.37-1.01-2.09c-0.94,0.5-1.58,1.15-1.37,2.3v0.58
		c-0.58,2.66,0,5.33,0,8.06c0.07,2.52,0.29,5.11-0.07,7.63c-0.14,0.65,0.14,1.51-1.08,1.37c-0.22-0.07-0.36,0.22-0.36,0.43
		c-0.14,0.36-0.22,0.72-0.29,1.08c-1.08-0.43-1.8-1.3-2.74-2.09c-0.86,0.86-1.87,1.08-2.88,0.43c-1.15-0.65-1.73-1.58-1.8-2.95
		c-0.07-1.15,0.29-2.23,0.22-3.38c-0.14-3.24-0.14-6.55-0.29-9.79c0-0.65-0.14-1.22-0.22-1.87c-0.72-3.67-0.79-7.42-0.58-11.16
		c0.22-3.82,0.22-7.56,0.36-11.38c0.07-1.8,0.29-3.53,0.14-5.4c0-0.36,0.07-0.72-0.14-1.08c-0.79,0-1.51,0.5-2.3,0.43
		c-0.22-0.36,0.43-0.58,0.07-0.86c-0.58-0.58-0.22-0.86,0.36-1.08c2.59-0.86,5.26-1.3,8.06-0.94
		C737.72,712.95,739.74,712.95,741.76,713.09z M738.59,737.14c0.43-0.22,0.58-0.29,0.65-0.36c2.38-2.38,4.82-4.61,6.77-7.34
		c1.3-1.87,1.73-4.03,2.09-6.19c0-0.36-0.07-0.65-0.22-0.94c-0.29-0.58-0.43-1.15-0.36-1.8c0.07-0.5-0.14-0.86-0.65-1.08
		c-0.36-0.14-0.65-0.43-1.01-0.65c-1.3-1.01-2.52-2.16-4.32-2.67c-1.08-0.29-2.02-0.22-3.17-0.22
		C738.88,722.96,738.8,729.94,738.59,737.14z"/>
	<path d="M780.78,713.16c0.14,0.22,0.22,0.22,0.43,0.22c1.08-0.22,1.8,0.58,2.59,1.01c0.58,0.29,0.94,0.94,1.01,1.66
		c0.07,1.51,0.07,2.95,0,4.39v0.43c0.22,2.59-0.07,5.26,0.36,7.92c0.58,3.17,0.94,6.48,1.01,9.79c0,0.22,0,0.5,0.29,0.86
		c1.58-0.22,3.24-0.5,4.9-0.79c0.07,0,0.14,0,0.14-0.07c0.86-1.15,2.16-0.65,3.31-0.86h0.58c1.37-0.14,1.22-0.22,1.58-1.51
		c0.43-1.58-0.14-3.1,0-4.68c0.5-4.97,0.07-9.94,0.22-14.98c0-0.58-0.14-1.22-0.22-1.87c-0.07-0.43,0-0.94,0.36-1.08
		c0.65-0.22,0.79-0.86,1.51-0.86c0.58,0.07,0.72,0.58,0.79,1.01c0.29,1.08,0.36,2.3,0.43,3.46c0,0.5,0,1.01,0.07,1.44
		c0.14,1.66,0.36,3.31,0.36,4.97c0.07,1.73,0,3.31,0.22,5.04c0,0.14,0.14,0.29,0.5,0.36c0.14-4.03-0.22-11.67-0.22-12.53
		c0-1.66,1.3,1.94,1.3,3.17c0.14,2.67,0.22,5.26,0.5,7.85c0,0.58-0.14,2.38-0.07,2.95c0.07,2.52-0.07,5.04,0.22,7.56
		c0.14,1.66,0.22,3.24-0.07,4.9c-0.07,0.43,0.22,0.86,0.29,1.3c0.29,1.94,0.5,3.96,0.29,5.9v0.79c0.43,1.51,0.36,3.1,0.43,4.68
		c0.07,0.86-0.14,1.8-0.07,2.74c0,0.58-0.36,1.15-0.86,1.58c-0.43,0.43-0.72,0.94-0.86,1.51c-0.14,0.36,0.72,0.43,0.22,0.79
		c-0.58,0.5-1.08,1.08-1.8,1.3c-0.5,0.14-0.94,0.36-1.44,0.65c-1.08-0.58-1.37-1.51-1.22-2.66c0.07-0.22,0.14-0.5,0.07-0.65
		c-0.43-2.02-0.29-4.1-0.29-6.12c0.07-1.22-0.29-2.45-0.22-3.67c0-1.3-0.07-2.52-0.22-3.82c-0.07-0.65-0.22-1.44,0.43-2.02
		c0.07-0.07,0.07-0.36,0.07-0.36c-0.86-0.65-0.43-1.51-0.5-2.23c-0.07-0.36-0.22-0.58-0.58-0.58c-0.65,0-1.3,0-1.94,0.07
		c-2.38,0.07-4.82-0.07-7.27,0.29c-0.22,0-0.43,0.07-0.65,0.14c-0.29,0.65-0.07,1.22,0,1.87c0,0.79,0.29,1.51,0,2.38
		c-0.07,0.22,0,0.43,0.07,0.65c0.22,0.79,0.14,1.44,0,2.38c-0.29,1.66-0.29,2.66-0.29,4.03c0,1.08,0.14,1.8,0.07,2.88
		c-0.07,0.58-0.22,1.66-0.07,2.09c0.36,0.86,0,1.73,0.14,2.59c0.07,0.43-0.22,0.65-0.65,0.65c-1.44,0.14-3.89,1.08-4.32-0.07
		c-0.07-0.22-0.43-0.14-0.65,0.5c-0.36,1.01-1.94,0.58-3.02,0.65c-0.29-0.43-0.43-0.94-0.43-1.44c0-2.02-0.22-3.96-0.29-5.9
		c-0.07-1.44,0.07-2.88,0.07-4.25c-0.14-2.23,0-5.11,0-7.42c0-0.72-0.14-0.72-0.86-0.94c-0.79-0.29-1.73-0.14-2.23-1.01
		c0.58-0.36,1.3-0.5,1.87-0.65c0.94-0.29,1.15-0.65,1.08-1.58c-0.29-3.24-0.36-6.19-0.29-9.43c0-4.68,0.07-9.36,0-14.11
		c0-0.5,0.07-1.01-0.14-1.44c-0.29-0.65-0.14-1.3,0.07-1.94c0.22-0.43,0.36-0.58,0.72-0.65C778.76,712.3,779.91,712.3,780.78,713.16
		z"/>
	<path d="M822.83,711.07c0.36,0.58-0.5,0.58-0.65,1.15c1.8-0.29,3.46-0.36,5.04,0.22c2.52,1.08,4.61,2.52,5.62,5.26
		c0.29,0.72,0.79,1.44,1.22,2.09c1.51,2.52,2.38,5.26,2.52,8.14c0.07,2.52,0.22,5.04,0.14,7.56c-0.07,2.66-0.07,5.4-0.29,8.14
		c-0.07,1.8-0.58,3.6-1.08,5.33c-0.65,2.3-1.66,4.46-2.16,6.84c-0.36,1.94-1.15,3.82-2.52,5.4c-0.43,0.5-1.01,0.72-1.51,1.08
		c-0.94,0.86-2.09,1.51-3.46,1.51c-0.5-0.07-1.08,0.14-1.37,0.43c-0.58,0.58-1.08,0.36-1.58,0.07c-0.43-0.29-0.86-0.58-0.65-1.3
		c0.07-0.36-0.22-0.65-0.5-1.08c-0.36,0.58-0.94,0.65-1.51,0.65c-0.5,0-1.08,0-1.58,0.07c-1.44,0.29-2.45-0.36-3.31-1.3
		c-0.36-0.36-0.72-0.79-1.01-1.3c-0.58-0.86-0.94-1.94-2.38-2.02c0.5-0.5,0.72-0.79,0.22-1.22c-2.09-1.66-2.52-4.03-2.74-6.55
		c-0.29-3.46-0.5-6.98-0.72-10.44c-0.07-1.08-0.07-2.09,0-3.1l0.36-7.42c0.29-3.67,1.01-7.27,2.45-10.66
		c0.79-1.94,2.02-3.6,3.6-4.97c0.72-0.58,1.73-1.01,2.59-1.51c0.72-0.5,1.37-1.15,2.3-0.86c0.22,0.07,0.5-0.14,0.79-0.29
		c0.22-0.07,0.43-0.22,0.72-0.29C821.96,710.57,822.54,710.57,822.83,711.07z M820.09,715.83c-0.94,0.94-1.8,2.09-2.16,3.31
		c-0.58,1.58-0.94,3.31-0.79,5.04c0.14,0.86,0.36,1.66,0.29,2.52c-0.14,2.38-0.07,4.75-0.22,7.13c-0.22,2.74,0,5.47,0.07,8.21
		c0.14,2.74,0.36,5.47,0.58,8.14c0.14,1.44,0.14,2.88,1.08,4.1c0.5,0.72,1.22,2.02,1.94,2.88c-1.37-0.07-1.8-1.66-2.74-2.02
		c0.29,0.5,0.5,1.08,0.72,1.58c0.22,0.36,0.36,0.72,0.65,1.01c0.22,0.29,0.43,0.79,0.86,0.72c0.86-0.07,1.22,0.5,1.58,1.08
		c0.22,0.36,0.5,0.79,1.01,0.72c1.15,0,2.66-1.37,2.74-2.52c0.14-1.87,0.65-3.74,0.94-5.54c0.43-2.59,0.94-5.04,1.08-7.63
		c0.14-2.88,0.29-5.76,0.58-8.64c0.29-3.82,1.01-7.7,0.43-11.59c-0.36-2.45-0.72-4.97-1.73-7.27c-0.36-1.01-1.15-1.66-2.16-1.87
		c-0.72-0.14-1.51-0.29-2.23-0.22C821.67,714.96,820.74,715.18,820.09,715.83z"/>
	<path d="M849.11,711.87c0.29,0.07,0.22,0.5,0.22,0.72c0,0.94,0,1.87-0.14,2.81c-0.29,2.88-0.07,5.76,0,8.64
		c0,1.22-0.22,2.45,0.07,3.6c0.07,0.5,0,1.01,0.5,1.37c0.94-2.74-0.22-5.47,0.22-8.28c0.5-2.66-0.07-5.47,0.36-8.42
		c1.01,0.79,0.79,1.73,0.72,2.52c0,1.87,0.07,3.74,0.07,5.62c-0.07,3.31,0.07,6.55,0.07,9.87c0.07,3.24-0.14,6.48,0.5,9.65
		c0.58,2.45,0.94,4.83,1.22,7.34c0.14,2.23-0.29,4.39-0.5,6.55c-0.07,0.5-0.14,0.94-0.14,1.44c-0.07,0.79-0.14,1.58-0.58,2.3
		c-0.43,0.72-0.43,1.51-0.07,2.3c0.22,0.07,0.36,0,0.43-0.22c0.36-0.65,0.36-0.72,0.94-0.14c0.22,0.22,0.43,0.22,0.65,0.22
		c0.94,0,1.94,0.07,2.95-0.14c1.37-0.22,2.74-0.29,4.18-0.43c0.72,0,1.51-0.07,2.16,0.36c0.36,0.22,0.79,0.14,1.22,0.14
		c0.36,0,0.72-0.07,1.08,0.14c0.36,0.22,0.72,0.5,0.22,0.86c-0.36,0.36-0.5,0.58-0.22,1.01c0.22,0.22,0.07,0.5-0.14,0.58
		c-1.01,0.43-1.8,1.08-3.02,0.94c-1.73-0.14-3.46,0.43-5.26,0.29c-1.94-0.07-3.96,0.14-5.91,0.29c-1.87,0.22-4.32,0.14-6.19,0.5
		c-1.3,0.22-2.23-0.43-2.88-1.87c0.72-0.58,2.02,0.07,2.38-1.15c-0.07-0.36-0.43-0.5-0.65-0.79c-0.5-0.72-1.01-1.37-1.08-2.3
		c-0.22-4.32,0-8.64-0.29-12.89c-0.22-3.6-0.14-7.2-0.29-10.8c-0.07-3.82-0.29-7.56-0.36-11.38c-0.07-3.02,0.14-6.12-0.14-9.15
		c-0.07-0.72,0.36-0.94,0.86-0.94c1.15,0.14,1.94-0.79,3.02-0.86c0.22,0,0.36-0.22,0.5-0.43c0.36-0.94,1.08-1.08,1.94-1.15
		C848.17,711,848.31,711.72,849.11,711.87z M845.22,760.83c-0.07,0.14,0,0.22,0.14,0.22c0.29,0.07,0.36-0.07,0.43-0.36
		c-0.07-0.14,0-0.36-0.29-0.36S845.29,760.61,845.22,760.83z"/>
	<path d="M878.2,711.72c2.81,0.43,5.62,1.01,8.35,1.51c0.79,0.14,1.66,0.14,2.45,0.36c3.02,0.86,5.4,2.59,6.62,5.54
		c0.36,0.94,0.65,1.87,0.86,2.88c0.07,0.36,0.14,0.65,0.65,0.65s0.5,0.43,0.65,0.79c0.94,2.88,1.22,5.83,0.86,8.79
		c-0.22,1.51-0.43,3.02-0.29,4.61c0,0.22-0.07,0.43-0.14,0.65c-0.94,3.89-2.23,7.7-4.25,11.16c-0.22,0.29-0.43,0.5-0.43,0.79
		c-0.29,2.3-2.38,3.31-3.46,4.97c-0.14,0.22-0.36,0.29-0.65,0.22c-0.5-0.14,0-0.65-0.36-0.94c-0.58,0.86-1.01,1.66-1.66,2.38
		c-1.08,1.3-2.09,2.59-3.31,3.74c-1.22,1.08-2.38,2.02-3.74,2.81c-1.15,0.72-1.22,1.01-1.15,2.3c-1.22,0-2.45-0.14-3.74,0.29
		c-0.79,0.36-1.94,0.43-2.52-0.65c-0.43,0.14-0.5,0.5-0.72,0.72c-0.58,0.36-0.94,1.01-1.87,0.72c-1.01-0.36-1.44-0.94-1.37-1.87
		c0.14-2.3-0.14-4.54,0.07-6.84c0.22-2.45,0.22-4.97-0.07-7.42c-0.36-3.31-0.5-6.7-0.5-10.08c0.07-2.09-0.07-4.18-0.07-6.19
		c0-3.17-0.14-6.26,0.29-9.36c0.22-1.51-0.22-3.02-0.07-4.54c0.07-0.58,0-1.08,0.43-1.58c0.5-0.5,0.29-1.37,0.29-2.09
		c0.07-0.43,0-0.86,0-1.51c-0.5,0-1.01,0.07-1.58,0c-0.79-0.07-0.79-0.14-0.36-1.01c0.65-1.3,1.8-1.3,2.95-1.22
		c0.72,0.07,1.44,0.14,2.09-0.07c0.14-0.07,0.14-0.22,0.14-0.36c-0.29-1.08-0.22-1.15,0.86-0.86
		C875.03,711.36,876.61,711.43,878.2,711.72z M875.82,715.9c0.79,1.37,0.36,2.95,0.94,4.32c-0.07,3.82,0.07,7.56,0.29,11.38
		c0.14,3.02,0,6.12,0.36,9.15c0.29,2.45,0.07,5.04,0.79,7.49c0.07,0.07,0.07,0.14,0.07,0.22c-0.22,2.09,0.29,4.1,0.36,6.19
		c0,0.5,0,1.08,0.29,1.66c1.22-1.44,2.09-3.02,3.1-4.54c-0.58-0.14-0.86,0.43-1.44,0.29c0.07-0.29,0.29-0.43,0.43-0.58
		c0.79-0.72,1.8-1.22,2.38-2.16c2.59-4.32,4.75-8.86,6.41-13.61c0.22-0.72,0.43-1.44,0.43-2.23c0.07-1.8,0.22-3.53,0.22-5.26
		c0.07-0.86,0.14-1.73-0.07-2.59c-0.79-2.88-2.09-5.54-3.96-7.85c-0.22-0.29-0.43-0.43-0.72-0.65c-1.51-1.08-3.1-2.09-5.11-1.94
		c-0.14,0-0.22-0.07-0.36-0.14c-1.22-0.07-2.38-0.36-3.6-0.29C875.67,714.82,875.39,715.18,875.82,715.9z M888.92,718.42
		c0.07,0.14,0.22,0.29,0.36,0.5c0.22-0.72,0.07-1.01-0.5-1.01C888.64,718.13,888.78,718.27,888.92,718.42z M897.71,729.8
		c0.36-1.8-0.22-3.53-0.65-5.18C896.77,726.41,897.64,728.07,897.71,729.8z"/>
	<path d="M902.67,755.43c-1.08,0.43-1.44-0.86-1.73-1.51C902.03,753.99,902.17,754.85,902.67,755.43z M920.46,711.72
		c1.58,0.43,2.74,1.3,3.24,3.02l1.3,4.1c0.43,1.15,0,2.23-0.14,3.31c-0.07,0.5-0.79,0.5-1.08,1.01c-0.29,0.72-0.79,1.37-1.15,2.09
		c-0.43-0.14-0.36-0.65-0.65-0.86c-0.5,0.14-0.22,0.79-0.65,1.01c-0.07,0.07-0.14,0.07-0.22-0.07c-1.15-1.51-1.8-3.17-1.44-5.11
		c0.22-1.01,0.07-1.94-0.22-2.95c-0.36-1.37-2.23-3.02-3.53-2.52c-0.72,0.22-1.44,0.58-2.16,0.86c-0.79,0.36-1.22,1.15-1.58,1.87
		c-0.36,0.72-0.65,2.02-1.08,2.67c-0.72,0.79-0.72,2.88,0.14,3.53c2.16,1.8,3.6,4.18,5.26,6.26c1.3,1.73,2.88,3.1,4.46,4.46
		c1.3,1.22,2.52,2.59,3.53,4.1c0.36,0.58,0.86,1.22,1.37,1.73c1.73,1.66,1.66,3.96,2.3,6.12c0.43,1.51,0.29,3.1,0.36,4.68
		c0,0.72-0.07,1.51-0.86,1.94c-0.43,0.22-0.36,0.58-0.43,0.94c-0.36,1.87-1.15,3.6-2.16,5.18c-0.43,0.65-1.01,1.22-1.8,1.3
		c-0.36,0.07-0.58,0.29-0.79,0.5c-0.72,0.94-1.8,1.51-2.81,2.02c-0.29,0.14-0.58,0.36-0.86,0.22c-0.86-0.36-1.58,0-2.3,0.36
		c-2.16,1.22-5.76,0.29-8.86-1.58c-0.29-0.22-4.54-4.25-4.68-4.46c-1.51-2.09,2.3,1.73,0.86-0.5c-0.29-0.5-0.65-1.37-0.58-2.02
		c0-0.86-0.72-1.3-1.08-1.94c-0.14-0.29-0.5-0.43-0.58-0.86c0.29-0.22,1.01-0.58,1.44-0.14c0.58,0.65,0.72,0.29,1.15,0.5
		c0.43,0.29,0.5,0.43,1.08,0.86c0.79,0.65,0.94,1.3,1.44,1.87c0.72,1.01,1.51,1.22,2.59,1.73c2.52,1.01,5.04,3.17,7.27,0.86
		c1.37-1.44,1.66-2.95,1.66-4.75c-0.07-1.87-0.43-3.6-0.86-5.33c-0.07-0.43-0.29-0.79-0.5-1.08c-2.74-3.82-4.97-7.06-8.42-10.08
		c-1.8-1.44-3.96-3.96-4.61-6.19c-0.29-1.15-1.01-2.16-1.15-3.31c-0.07-0.65-0.14-1.3,0.07-1.87c0.58-2.02,0.86-4.18,1.66-6.12
		c1.08-2.81,3.02-4.83,5.47-6.48c0.72-0.5,1.51-0.65,2.45-0.5c1.3,0.22,2.52-0.29,3.82-0.43
		C917.58,711.51,919.02,711.43,920.46,711.72z M912.75,737.5c0.22-0.07-0.58-1.58-1.08-2.16c-0.72-1.01-1.51-1.3-1.66-1.8
		c-1.01-0.65-1.8-1.58-2.95-1.87C908.36,733.83,910.95,736.06,912.75,737.5z"/>
</g>
<g>
</g>
<g>
</g>
<g>
</g>
<g>
</g>
<g>
</g>
<g>
</g>
</svg>
